<svg width="180" height="180" viewBox="0 0 180 180" fill="none" xmlns="http://www.w3.org/2000/svg">
<path d="M0 6.42857H6.42857L0 0V6.42857Z" fill="black"/>
<path d="M19.2858 6.42857H25.7143L19.2858 0V6.42857Z" fill="black"/>
<path d="M38.5714 6.42857H45L38.5714 0V6.42857Z" fill="black"/>
<path d="M57.8572 6.42857H64.2857L57.8572 0V6.42857Z" fill="black"/>
<path d="M77.1428 6.42857H83.5714L77.1428 0V6.42857Z" fill="black"/>
<path d="M96.4286 6.42857H102.857L96.4286 0V6.42857Z" fill="black"/>
<path d="M115.714 6.42857H122.143L115.714 0V6.42857Z" fill="black"/>
<path d="M135 6.42857H141.429L135 0V6.42857Z" fill="black"/>
<path d="M154.286 6.42857H160.714L154.286 0V6.42857Z" fill="black"/>
<path d="M173.572 6.42857H180L173.572 0V6.42857Z" fill="black"/>
<path d="M0 25.7142H6.42857L0 19.2856V25.7142Z" fill="black"/>
<path d="M19.2858 25.7142H25.7143L19.2858 19.2856V25.7142Z" fill="black"/>
<path d="M38.5714 25.7142H45L38.5714 19.2856V25.7142Z" fill="black"/>
<path d="M57.8572 25.7142H64.2857L57.8572 19.2856V25.7142Z" fill="black"/>
<path d="M77.1428 25.7142H83.5714L77.1428 19.2856V25.7142Z" fill="black"/>
<path d="M96.4286 25.7142H102.857L96.4286 19.2856V25.7142Z" fill="black"/>
<path d="M115.714 25.7142H122.143L115.714 19.2856V25.7142Z" fill="black"/>
<path d="M135 25.7142H141.429L135 19.2856V25.7142Z" fill="black"/>
<path d="M154.286 25.7142H160.714L154.286 19.2856V25.7142Z" fill="black"/>
<path d="M173.572 25.7142H180L173.572 19.2856V25.7142Z" fill="black"/>
<path d="M0 45.0001H6.42857L0 38.5715V45.0001Z" fill="black"/>
<path d="M19.2858 45.0001H25.7143L19.2858 38.5715V45.0001Z" fill="black"/>
<path d="M38.5714 45.0001H45L38.5714 38.5715V45.0001Z" fill="black"/>
<path d="M57.8572 45.0001H64.2857L57.8572 38.5715V45.0001Z" fill="black"/>
<path d="M77.1428 45.0001H83.5714L77.1428 38.5715V45.0001Z" fill="black"/>
<path d="M96.4286 45.0001H102.857L96.4286 38.5715V45.0001Z" fill="black"/>
<path d="M115.714 45.0001H122.143L115.714 38.5715V45.0001Z" fill="black"/>
<path d="M135 45.0001H141.429L135 38.5715V45.0001Z" fill="black"/>
<path d="M154.286 45.0001H160.714L154.286 38.5715V45.0001Z" fill="black"/>
<path d="M173.572 45.0001H180L173.572 38.5715V45.0001Z" fill="black"/>
<path d="M0 64.2857H6.42857L0 57.8572V64.2857Z" fill="black"/>
<path d="M19.2858 64.2857H25.7143L19.2858 57.8572V64.2857Z" fill="black"/>
<path d="M38.5714 64.2857H45L38.5714 57.8572V64.2857Z" fill="black"/>
<path d="M57.8572 64.2857H64.2857L57.8572 57.8572V64.2857Z" fill="black"/>
<path d="M77.1428 64.2857H83.5714L77.1428 57.8572V64.2857Z" fill="black"/>
<path d="M96.4286 64.2857H102.857L96.4286 57.8572V64.2857Z" fill="black"/>
<path d="M115.714 64.2857H122.143L115.714 57.8572V64.2857Z" fill="black"/>
<path d="M135 64.2857H141.429L135 57.8572V64.2857Z" fill="black"/>
<path d="M154.286 64.2857H160.714L154.286 57.8572V64.2857Z" fill="black"/>
<path d="M173.572 64.2857H180L173.572 57.8572V64.2857Z" fill="black"/>
<path d="M0 83.5714H6.42857L0 77.1428V83.5714Z" fill="black"/>
<path d="M19.2858 83.5714H25.7143L19.2858 77.1428V83.5714Z" fill="black"/>
<path d="M38.5714 83.5714H45L38.5714 77.1428V83.5714Z" fill="black"/>
<path d="M57.8572 83.5714H64.2857L57.8572 77.1428V83.5714Z" fill="black"/>
<path d="M77.1428 83.5714H83.5714L77.1428 77.1428V83.5714Z" fill="black"/>
<path d="M96.4286 83.5714H102.857L96.4286 77.1428V83.5714Z" fill="black"/>
<path d="M115.714 83.5714H122.143L115.714 77.1428V83.5714Z" fill="black"/>
<path d="M135 83.5714H141.429L135 77.1428V83.5714Z" fill="black"/>
<path d="M154.286 83.5714H160.714L154.286 77.1428V83.5714Z" fill="black"/>
<path d="M173.572 83.5714H180L173.572 77.1428V83.5714Z" fill="black"/>
<path d="M0 102.857H6.42857L0 96.4285V102.857Z" fill="black"/>
<path d="M19.2858 102.857H25.7143L19.2858 96.4285V102.857Z" fill="black"/>
<path d="M38.5714 102.857H45L38.5714 96.4285V102.857Z" fill="black"/>
<path d="M57.8572 102.857H64.2857L57.8572 96.4285V102.857Z" fill="black"/>
<path d="M77.1428 102.857H83.5714L77.1428 96.4285V102.857Z" fill="black"/>
<path d="M96.4286 102.857H102.857L96.4286 96.4285V102.857Z" fill="black"/>
<path d="M115.714 102.857H122.143L115.714 96.4285V102.857Z" fill="black"/>
<path d="M135 102.857H141.429L135 96.4285V102.857Z" fill="black"/>
<path d="M154.286 102.857H160.714L154.286 96.4285V102.857Z" fill="black"/>
<path d="M173.572 102.857H180L173.572 96.4285V102.857Z" fill="black"/>
<path d="M0 122.143H6.42857L0 115.714V122.143Z" fill="black"/>
<path d="M19.2858 122.143H25.7143L19.2858 115.714V122.143Z" fill="black"/>
<path d="M38.5714 122.143H45L38.5714 115.714V122.143Z" fill="black"/>
<path d="M57.8572 122.143H64.2857L57.8572 115.714V122.143Z" fill="black"/>
<path d="M77.1428 122.143H83.5714L77.1428 115.714V122.143Z" fill="black"/>
<path d="M96.4286 122.143H102.857L96.4286 115.714V122.143Z" fill="black"/>
<path d="M115.714 122.143H122.143L115.714 115.714V122.143Z" fill="black"/>
<path d="M135 122.143H141.429L135 115.714V122.143Z" fill="black"/>
<path d="M154.286 122.143H160.714L154.286 115.714V122.143Z" fill="black"/>
<path d="M173.572 122.143H180L173.572 115.714V122.143Z" fill="black"/>
<path d="M0 141.429H6.42857L0 135V141.429Z" fill="black"/>
<path d="M19.2858 141.429H25.7143L19.2858 135V141.429Z" fill="black"/>
<path d="M38.5714 141.429H45L38.5714 135V141.429Z" fill="black"/>
<path d="M57.8572 141.429H64.2857L57.8572 135V141.429Z" fill="black"/>
<path d="M77.1428 141.429H83.5714L77.1428 135V141.429Z" fill="black"/>
<path d="M96.4286 141.429H102.857L96.4286 135V141.429Z" fill="black"/>
<path d="M115.714 141.429H122.143L115.714 135V141.429Z" fill="black"/>
<path d="M135 141.429H141.429L135 135V141.429Z" fill="black"/>
<path d="M154.286 141.429H160.714L154.286 135V141.429Z" fill="black"/>
<path d="M173.572 141.429H180L173.572 135V141.429Z" fill="black"/>
<path d="M0 160.714H6.42857L0 154.286V160.714Z" fill="black"/>
<path d="M19.2858 160.714H25.7143L19.2858 154.286V160.714Z" fill="black"/>
<path d="M38.5714 160.714H45L38.5714 154.286V160.714Z" fill="black"/>
<path d="M57.8572 160.714H64.2857L57.8572 154.286V160.714Z" fill="black"/>
<path d="M77.1428 160.714H83.5714L77.1428 154.286V160.714Z" fill="black"/>
<path d="M96.4286 160.714H102.857L96.4286 154.286V160.714Z" fill="black"/>
<path d="M115.714 160.714H122.143L115.714 154.286V160.714Z" fill="black"/>
<path d="M135 160.714H141.429L135 154.286V160.714Z" fill="black"/>
<path d="M154.286 160.714H160.714L154.286 154.286V160.714Z" fill="black"/>
<path d="M173.572 160.714H180L173.572 154.286V160.714Z" fill="black"/>
<path d="M0 180H6.42857L0 173.572V180Z" fill="black"/>
<path d="M19.2858 180H25.7143L19.2858 173.572V180Z" fill="black"/>
<path d="M38.5714 180H45L38.5714 173.572V180Z" fill="black"/>
<path d="M57.8572 180H64.2857L57.8572 173.572V180Z" fill="black"/>
<path d="M77.1428 180H83.5714L77.1428 173.572V180Z" fill="black"/>
<path d="M96.4286 180H102.857L96.4286 173.572V180Z" fill="black"/>
<path d="M115.714 180H122.143L115.714 173.572V180Z" fill="black"/>
<path d="M135 180H141.429L135 173.572V180Z" fill="black"/>
<path d="M154.286 180H160.714L154.286 173.572V180Z" fill="black"/>
<path d="M173.572 180H180L173.572 173.572V180Z" fill="black"/>
</svg>
