<svg width="127" height="1068" viewBox="0 0 127 1068" fill="none" xmlns="http://www.w3.org/2000/svg">
<path opacity="0.1" d="M130 1480.96L130 1482.96L132 1482.96L132 1480.96L130 1480.96ZM32.44 1480.96L32.44 1478.96L30.44 1478.96L30.44 1480.96L32.44 1480.96ZM32.44 1528.84L32.44 1530.84L34.44 1530.84L34.44 1528.84L32.44 1528.84ZM1.47999 1528.84L-0.520008 1528.84L-0.520008 1530.84L1.47999 1530.84L1.47999 1528.84ZM1.47999 1395.28L1.47999 1393.28L-0.520014 1393.28L-0.520014 1395.28L1.47999 1395.28ZM32.44 1395.28L34.44 1395.28L34.44 1393.28L32.44 1393.28L32.44 1395.28ZM32.44 1443.16L30.44 1443.16L30.44 1445.16L32.44 1445.16L32.44 1443.16ZM130 1443.16L132 1443.16L132 1441.16L130 1441.16L130 1443.16ZM130 1478.96L32.44 1478.96L32.44 1482.96L130 1482.96L130 1478.96ZM30.44 1480.96L30.44 1528.84L34.44 1528.84L34.44 1480.96L30.44 1480.96ZM32.44 1526.84L1.47999 1526.84L1.47999 1530.84L32.44 1530.84L32.44 1526.84ZM3.47999 1528.84L3.47999 1395.28L-0.520014 1395.28L-0.520008 1528.84L3.47999 1528.84ZM1.47999 1397.28L32.44 1397.28L32.44 1393.28L1.47999 1393.28L1.47999 1397.28ZM30.44 1395.28L30.44 1443.16L34.44 1443.16L34.44 1395.28L30.44 1395.28ZM32.44 1445.16L130 1445.16L130 1441.16L32.44 1441.16L32.44 1445.16ZM128 1443.16L128 1480.96L132 1480.96L132 1443.16L128 1443.16ZM130 1380.77L130 1382.77L132 1382.77L132 1380.77L130 1380.77ZM35.5 1380.77L33.5 1380.77L33.5 1382.77L35.5 1382.77L35.5 1380.77ZM35.5 1345.13L35.5 1343.13L33.5 1343.13L33.5 1345.13L35.5 1345.13ZM130 1345.13L132 1345.13L132 1343.13L130 1343.13L130 1345.13ZM23.8 1380.95L23.8 1382.95L25.8 1382.95L25.8 1380.95L23.8 1380.95ZM0.399987 1380.95L-1.60001 1380.95L-1.60001 1382.95L0.399987 1382.95L0.399987 1380.95ZM0.399986 1344.95L0.399986 1342.95L-1.60001 1342.95L-1.60001 1344.95L0.399986 1344.95ZM23.8 1344.95L25.8 1344.95L25.8 1342.95L23.8 1342.95L23.8 1344.95ZM130 1378.77L35.5 1378.77L35.5 1382.77L130 1382.77L130 1378.77ZM37.5 1380.77L37.5 1345.13L33.5 1345.13L33.5 1380.77L37.5 1380.77ZM35.5 1347.13L130 1347.13L130 1343.13L35.5 1343.13L35.5 1347.13ZM128 1345.13L128 1380.77L132 1380.77L132 1345.13L128 1345.13ZM23.8 1378.95L0.399987 1378.95L0.399987 1382.95L23.8 1382.95L23.8 1378.95ZM2.39999 1380.95L2.39999 1344.95L-1.60001 1344.95L-1.60001 1380.95L2.39999 1380.95ZM0.399986 1346.95L23.8 1346.95L23.8 1342.95L0.399986 1342.95L0.399986 1346.95ZM21.8 1344.95L21.8 1380.95L25.8 1380.95L25.8 1344.95L21.8 1344.95ZM130 1182.78L130 1184.78L132 1184.78L132 1182.78L130 1182.78ZM63.4 1186.02L64.6584 1187.57L64.699 1187.54L64.7379 1187.51L63.4 1186.02ZM65.56 1210.5L64.1048 1211.87L64.125 1211.89L64.1458 1211.91L65.56 1210.5ZM130 1215.9L132 1215.9L132 1213.9L130 1213.9L130 1215.9ZM130 1251.54L130 1253.54L132 1253.54L132 1251.54L130 1251.54ZM63.22 1254.78L64.5153 1256.3L64.5369 1256.28L64.5579 1256.27L63.22 1254.78ZM61.24 1272.78L59.4017 1273.57L59.4088 1273.58L59.4161 1273.6L61.24 1272.78ZM65.92 1279.26L67.3342 1277.84L67.3128 1277.82L67.2907 1277.8L65.92 1279.26ZM130 1284.66L132 1284.66L132 1282.66L130 1282.66L130 1284.66ZM130 1320.3L130 1322.3L132 1322.3L132 1320.3L130 1320.3ZM35.5 1320.3L33.5 1320.3L33.5 1322.3L35.5 1322.3L35.5 1320.3ZM35.5 1285.38L35.5 1283.38L33.5 1283.38L33.5 1285.38L35.5 1285.38ZM48.64 1285.38L48.64 1287.38L53.9565 1287.38L49.9582 1283.87L48.64 1285.38ZM36.94 1231.92L38.6958 1232.88L36.94 1231.92ZM49.54 1219.86L50.4344 1221.65L53.1572 1220.29L50.8267 1218.33L49.54 1219.86ZM42.16 1156.5L43.5467 1157.94L43.5606 1157.93L43.5742 1157.91L42.16 1156.5ZM130 1147.14L132 1147.14L132 1145.14L130 1145.14L130 1147.14ZM130 1180.78L74.74 1180.78L74.74 1184.78L130 1184.78L130 1180.78ZM74.74 1180.78C69.3661 1180.78 64.9947 1181.89 62.062 1184.53L64.7379 1187.51C66.6053 1185.82 69.7939 1184.78 74.74 1184.78L74.74 1180.78ZM62.1416 1184.46C58.9616 1187.04 57.62 1191.17 57.62 1196.28L61.62 1196.28C61.62 1191.78 62.7983 1189.08 64.6584 1187.57L62.1416 1184.46ZM57.62 1196.28C57.62 1202.12 59.8305 1207.34 64.1048 1211.87L67.0152 1209.13C63.3695 1205.26 61.62 1201 61.62 1196.28L57.62 1196.28ZM64.1458 1211.91C68.0488 1215.82 72.4957 1217.9 77.44 1217.9L77.44 1213.9C73.7443 1213.9 70.2712 1212.38 66.9742 1209.08L64.1458 1211.91ZM77.44 1217.9L130 1217.9L130 1213.9L77.44 1213.9L77.44 1217.9ZM128 1215.9L128 1251.54L132 1251.54L132 1215.9L128 1215.9ZM130 1249.54L74.74 1249.54L74.74 1253.54L130 1253.54L130 1249.54ZM74.74 1249.54C69.2606 1249.54 64.8213 1250.65 61.8821 1253.29L64.5579 1256.27C66.4186 1254.59 69.6593 1253.54 74.74 1253.54L74.74 1249.54ZM61.9247 1253.25C58.8859 1255.84 57.62 1259.96 57.62 1265.04L61.62 1265.04C61.62 1260.52 62.7541 1257.8 64.5153 1256.3L61.9247 1253.25ZM57.62 1265.04C57.62 1267.96 58.2192 1270.81 59.4017 1273.57L63.0783 1271.99C62.1008 1269.71 61.62 1267.4 61.62 1265.04L57.62 1265.04ZM59.4161 1273.6C60.6108 1276.25 62.3304 1278.63 64.5493 1280.72L67.2907 1277.8C65.4295 1276.05 64.0292 1274.1 63.0638 1271.96L59.4161 1273.6ZM64.5058 1280.67C68.4556 1284.62 73.1549 1286.66 78.52 1286.66L78.52 1282.66C74.2851 1282.66 70.5844 1281.09 67.3342 1277.84L64.5058 1280.67ZM78.52 1286.66L130 1286.66L130 1282.66L78.52 1282.66L78.52 1286.66ZM128 1284.66L128 1320.3L132 1320.3L132 1284.66L128 1284.66ZM130 1318.3L35.5 1318.3L35.5 1322.3L130 1322.3L130 1318.3ZM37.5 1320.3L37.5 1285.38L33.5 1285.38L33.5 1320.3L37.5 1320.3ZM35.5 1287.38L48.64 1287.38L48.64 1283.38L35.5 1283.38L35.5 1287.38ZM49.9582 1283.87C39.6882 1274.87 34.62 1263.95 34.62 1251L30.62 1251C30.62 1265.17 36.2318 1277.16 47.3218 1286.88L49.9582 1283.87ZM34.62 1251C34.62 1243.82 36.0097 1237.8 38.6958 1232.88L35.1842 1230.96C32.1102 1236.6 30.62 1243.3 30.62 1251L34.62 1251ZM38.6958 1232.88C41.3749 1227.96 45.2695 1224.23 50.4344 1221.65L48.6456 1218.07C42.7705 1221.01 38.2651 1225.31 35.1842 1230.96L38.6958 1232.88ZM50.8267 1218.33C40.0245 1209.25 34.62 1197.34 34.62 1182.42L30.62 1182.42C30.62 1198.46 36.4955 1211.51 48.2532 1221.39L50.8267 1218.33ZM34.62 1182.42C34.62 1171.65 37.6762 1163.59 43.5467 1157.94L40.7732 1155.06C33.9238 1161.65 30.62 1170.87 30.62 1182.42L34.62 1182.42ZM43.5742 1157.91C49.3423 1152.14 57.5357 1149.14 68.44 1149.14L68.44 1145.14C56.7843 1145.14 47.4577 1148.37 40.7458 1155.08L43.5742 1157.91ZM68.44 1149.14L130 1149.14L130 1145.14L68.44 1145.14L68.44 1149.14ZM128 1147.14L128 1182.78L132 1182.78L132 1147.14L128 1147.14ZM130 980.965L131.017 982.687L132 982.106L132 980.965L130 980.965ZM86.44 1006.71L85.4225 1004.98L84.44 1005.56L84.44 1006.71L86.44 1006.71ZM86.44 1036.22L84.44 1036.22L84.44 1038.22L86.44 1038.22L86.44 1036.22ZM130 1036.22L132 1036.22L132 1034.22L130 1034.22L130 1036.22ZM130 1071.86L130 1073.86L132 1073.86L132 1071.86L130 1071.86ZM1.47997 1071.86L-0.520028 1071.86L-0.520028 1073.86L1.47997 1073.86L1.47997 1071.86ZM65.56 954.325L66.6612 952.655L66.6531 952.65L66.645 952.645L65.56 954.325ZM79.24 971.425L77.4183 972.25L78.3586 974.326L80.2945 973.124L79.24 971.425ZM130 939.925L132 939.925L132 936.33L128.945 938.226L130 939.925ZM55.48 990.685L57.1606 989.601L55.48 990.685ZM32.44 990.505L34.0864 991.64L34.1086 991.608L34.1296 991.575L32.44 990.505ZM28.84 1036.23L26.84 1036.23L26.84 1038.23L28.84 1038.23L28.84 1036.23ZM59.08 1036.23L59.08 1038.23L61.08 1038.23L61.08 1036.23L59.08 1036.23ZM128.983 979.243L85.4225 1004.98L87.4574 1008.43L131.017 982.687L128.983 979.243ZM84.44 1006.71L84.44 1036.22L88.44 1036.22L88.44 1006.71L84.44 1006.71ZM86.44 1038.22L130 1038.22L130 1034.22L86.44 1034.22L86.44 1038.22ZM128 1036.22L128 1071.86L132 1071.86L132 1036.22L128 1036.22ZM130 1069.86L1.47997 1069.86L1.47997 1073.86L130 1073.86L130 1069.86ZM3.47997 1071.86L3.47997 1006.16L-0.520031 1006.16L-0.520028 1071.86L3.47997 1071.86ZM3.47997 1006.16C3.47997 987.214 7.01011 973.365 13.7504 964.293C20.4079 955.332 30.4151 950.745 44.14 950.745L44.14 946.745C29.4248 946.745 18.102 951.728 10.5395 961.907C3.05983 971.975 -0.520032 986.836 -0.520031 1006.16L3.47997 1006.16ZM44.14 950.745C52.3684 950.745 59.1087 952.539 64.4749 956.005L66.645 952.645C60.4912 948.671 52.9515 946.745 44.14 946.745L44.14 950.745ZM64.4588 955.995C69.7141 959.461 74.0555 964.829 77.4183 972.25L81.0617 970.6C77.4644 962.661 72.6859 956.629 66.6612 952.655L64.4588 955.995ZM80.2945 973.124L131.055 941.624L128.945 938.226L78.1854 969.726L80.2945 973.124ZM128 939.925L128 980.965L132 980.965L132 939.925L128 939.925ZM61.08 1008.5C61.08 1000.24 59.8808 993.817 57.1606 989.601L53.7994 991.769C55.8791 994.993 57.08 1000.45 57.08 1008.5L61.08 1008.5ZM57.1606 989.601C54.308 985.179 49.6876 983.105 43.78 983.105L43.78 987.105C48.6723 987.105 51.852 988.751 53.7994 991.769L57.1606 989.601ZM43.78 983.105C38.0027 983.105 33.4875 985.113 30.7503 989.435L34.1296 991.575C35.9525 988.697 38.9972 987.105 43.78 987.105L43.78 983.105ZM30.7935 989.37C28.0298 993.377 26.84 999.785 26.84 1008.15L30.84 1008.15C30.84 999.945 32.0501 994.593 34.0864 991.64L30.7935 989.37ZM26.84 1008.15L26.84 1036.23L30.84 1036.23L30.84 1008.15L26.84 1008.15ZM28.84 1038.23L59.08 1038.23L59.08 1034.23L28.84 1034.23L28.84 1038.23ZM61.08 1036.23L61.08 1008.5L57.08 1008.5L57.08 1036.23L61.08 1036.23ZM119.38 832.701L117.858 833.999L119.38 832.701ZM119.92 918.741L121.43 920.053L121.438 920.043L119.92 918.741ZM46.12 918.021L44.5978 919.319L46.12 918.021ZM45.76 831.981L47.2696 833.293L47.2785 833.283L45.76 831.981ZM65.02 858.621L63.6492 857.165L65.02 858.621ZM65.02 892.101L63.627 893.536L63.638 893.547L63.6492 893.558L65.02 892.101ZM100.48 892.101L101.851 893.558L100.48 892.101ZM100.48 858.801L99.087 860.236L99.0981 860.247L99.1092 860.258L100.48 858.801ZM82.48 818.861C97.5758 818.861 109.288 823.943 117.858 833.999L120.902 831.404C111.472 820.339 98.5841 814.861 82.48 814.861L82.48 818.861ZM117.858 833.999C126.462 844.094 130.88 858.041 130.88 876.081L134.88 876.081C134.88 857.401 130.298 842.429 120.902 831.404L117.858 833.999ZM130.88 876.081C130.88 894.146 126.63 907.84 118.401 917.44L121.438 920.043C130.49 909.483 134.88 894.736 134.88 876.081L130.88 876.081ZM118.41 917.429C110.099 926.994 98.4539 931.861 83.2 931.861L83.2 935.861C99.386 935.861 112.221 930.649 121.43 920.053L118.41 917.429ZM83.2 931.861C67.9787 931.861 56.209 926.776 47.6421 916.724L44.5978 919.319C54.0309 930.387 66.9813 935.861 83.2 935.861L83.2 931.861ZM47.6421 916.724C39.0383 906.629 34.62 892.681 34.62 874.641L30.62 874.641C30.62 893.321 35.2016 908.294 44.5978 919.319L47.6421 916.724ZM34.62 874.641C34.62 856.582 38.9271 842.893 47.2696 833.293L44.2504 830.669C35.0728 841.23 30.62 855.98 30.62 874.641L34.62 874.641ZM47.2785 833.283C55.4646 823.732 67.0998 818.861 82.48 818.861L82.48 814.861C66.1801 814.861 53.3353 820.07 44.2415 830.68L47.2785 833.283ZM82.66 850.861C74.6619 850.861 68.2194 852.863 63.6492 857.165L66.3907 860.078C69.9805 856.699 75.298 854.861 82.66 854.861L82.66 850.861ZM63.6492 857.165C59.0545 861.489 56.9 867.667 56.9 875.361L60.9 875.361C60.9 868.415 62.8255 863.433 66.3907 860.078L63.6492 857.165ZM56.9 875.361C56.9 882.95 59.0619 889.106 63.627 893.536L66.4129 890.666C62.8181 887.177 60.9 882.173 60.9 875.361L56.9 875.361ZM63.6492 893.558C68.2247 897.864 74.7318 899.861 82.84 899.861L82.84 895.861C75.3481 895.861 69.9753 894.019 66.3907 890.645L63.6492 893.558ZM82.84 899.861C90.838 899.861 97.2805 897.859 101.851 893.558L99.1092 890.645C95.5194 894.023 90.2019 895.861 82.84 895.861L82.84 899.861ZM101.851 893.558C106.445 889.233 108.6 883.055 108.6 875.361L104.6 875.361C104.6 882.307 102.674 887.289 99.1092 890.645L101.851 893.558ZM108.6 875.361C108.6 867.776 106.439 861.663 101.851 857.345L99.1092 860.258C102.681 863.619 104.6 868.547 104.6 875.361L108.6 875.361ZM101.873 857.366C97.299 852.927 90.7832 850.861 82.66 850.861L82.66 854.861C90.1367 854.861 95.501 856.756 99.087 860.236L101.873 857.366ZM130 723.931L130 725.931L132 725.931L132 723.931L130 723.931ZM116.86 723.931L116.86 721.931L111.827 721.931L115.487 725.385L116.86 723.931ZM123.34 787.651L124.767 789.052L124.774 789.045L124.78 789.038L123.34 787.651ZM35.5 797.371L33.5 797.371L33.5 799.371L35.5 799.371L35.5 797.371ZM35.5 761.731L35.5 759.731L33.5 759.731L33.5 761.731L35.5 761.731ZM102.1 757.951L103.514 759.365L102.1 757.951ZM99.58 730.771L98.0748 732.088L99.58 730.771ZM93.64 726.271L94.4961 724.463L94.4785 724.455L94.4607 724.447L93.64 726.271ZM35.5 724.651L33.5 724.651L33.5 726.651L35.5 726.651L35.5 724.651ZM35.5 689.011L35.5 687.011L33.5 687.011L33.5 689.011L35.5 689.011ZM130 689.011L132 689.011L132 687.011L130 687.011L130 689.011ZM130 721.931L116.86 721.931L116.86 725.931L130 725.931L130 721.931ZM115.487 725.385C125.784 735.103 130.88 746.704 130.88 760.291L134.88 760.291C134.88 745.557 129.296 732.918 118.233 722.476L115.487 725.385ZM130.88 760.291C130.88 771.559 127.811 780.129 121.9 786.263L124.78 789.038C131.589 781.972 134.88 772.302 134.88 760.291L130.88 760.291ZM121.913 786.25C116.016 792.258 107.761 795.371 96.88 795.371L96.88 799.371C108.559 799.371 117.944 796.003 124.767 789.052L121.913 786.25ZM96.88 795.371L35.5 795.371L35.5 799.371L96.88 799.371L96.88 795.371ZM37.5 797.371L37.5 761.731L33.5 761.731L33.5 797.371L37.5 797.371ZM35.5 763.731L90.22 763.731L90.22 759.731L35.5 759.731L35.5 763.731ZM90.22 763.731C95.8814 763.731 100.464 762.415 103.514 759.365L100.686 756.536C98.6957 758.526 95.3585 759.731 90.22 759.731L90.22 763.731ZM103.514 759.365C106.549 756.33 107.88 751.883 107.88 746.431L103.88 746.431C103.88 751.298 102.691 754.532 100.686 756.536L103.514 759.365ZM107.88 746.431C107.88 740.242 105.56 734.567 101.085 729.454L98.0748 732.088C102 736.574 103.88 741.339 103.88 746.431L107.88 746.431ZM101.085 729.454C99.2268 727.33 97.0266 725.662 94.4961 724.463L92.7838 728.078C94.8133 729.039 96.5732 730.371 98.0748 732.088L101.085 729.454ZM94.4607 724.447C91.8278 723.262 89.1493 722.651 86.44 722.651L86.44 726.651C88.5307 726.651 90.6521 727.119 92.8192 728.094L94.4607 724.447ZM86.44 722.651L35.5 722.651L35.5 726.651L86.44 726.651L86.44 722.651ZM37.5 724.651L37.5 689.011L33.5 689.011L33.5 724.651L37.5 724.651ZM35.5 691.011L130 691.011L130 687.011L35.5 687.011L35.5 691.011ZM128 689.011L128 723.931L132 723.931L132 689.011L128 689.011ZM127.3 586.887L129.2 586.262L128.658 584.615L126.95 584.918L127.3 586.887ZM123.34 645.567L124.797 646.937L124.804 646.93L124.811 646.923L123.34 645.567ZM61.42 654.567L61.42 652.567L59.42 652.567L59.42 654.567L61.42 654.567ZM61.42 672.567L61.42 674.567L63.42 674.567L63.42 672.567L61.42 672.567ZM35.5 672.567L33.5 672.567L33.5 674.567L35.5 674.567L35.5 672.567ZM35.5 654.567L37.5 654.567L37.5 652.567L35.5 652.567L35.5 654.567ZM10.66 654.567L8.65995 654.567L8.65995 656.567L10.66 656.567L10.66 654.567ZM10.6599 618.927L10.6599 616.927L8.65995 616.927L8.65995 618.927L10.6599 618.927ZM35.5 618.927L35.5 620.927L37.5 620.927L37.5 618.927L35.5 618.927ZM35.5 590.847L35.5 588.847L33.5 588.847L33.5 590.847L35.5 590.847ZM61.42 590.847L63.42 590.847L63.42 588.847L61.42 588.847L61.42 590.847ZM61.42 618.927L59.42 618.927L59.42 620.927L61.42 620.927L61.42 618.927ZM102.64 615.867L104.054 617.282L104.096 617.24L104.135 617.196L102.64 615.867ZM103 591.207L102.65 589.238L100.443 589.63L101.083 591.778L103 591.207ZM125.4 587.512C128.328 596.414 129.8 605.981 129.8 616.227L133.8 616.227C133.8 605.593 132.272 595.601 129.2 586.262L125.4 587.512ZM129.8 616.227C129.8 629.458 127.012 638.631 121.869 644.212L124.811 646.923C130.948 640.263 133.8 629.877 133.8 616.227L129.8 616.227ZM121.883 644.198C116.785 649.621 108.264 652.567 95.8 652.567L95.8 656.567C108.775 656.567 118.615 653.514 124.797 646.937L121.883 644.198ZM95.8 652.567L61.42 652.567L61.42 656.567L95.8 656.567L95.8 652.567ZM59.42 654.567L59.42 672.567L63.42 672.567L63.42 654.567L59.42 654.567ZM61.42 670.567L35.5 670.567L35.5 674.567L61.42 674.567L61.42 670.567ZM37.5 672.567L37.5 654.567L33.5 654.567L33.5 672.567L37.5 672.567ZM35.5 652.567L10.66 652.567L10.66 656.567L35.5 656.567L35.5 652.567ZM12.66 654.567L12.6599 618.927L8.65995 618.927L8.65995 654.567L12.66 654.567ZM10.6599 620.927L35.5 620.927L35.5 616.927L10.6599 616.927L10.6599 620.927ZM37.5 618.927L37.5 590.847L33.5 590.847L33.5 618.927L37.5 618.927ZM35.5 592.847L61.42 592.847L61.42 588.847L35.5 588.847L35.5 592.847ZM59.42 590.847L59.42 618.927L63.42 618.927L63.42 590.847L59.42 590.847ZM61.42 620.927L93.28 620.927L93.28 616.927L61.42 616.927L61.42 620.927ZM93.28 620.927C97.7686 620.927 101.497 619.839 104.054 617.282L101.226 614.453C99.7028 615.976 97.1913 616.927 93.28 616.927L93.28 620.927ZM104.135 617.196C106.53 614.502 107.52 610.492 107.52 605.607L103.52 605.607C103.52 610.083 102.59 612.913 101.145 614.539L104.135 617.196ZM107.52 605.607C107.52 601.385 106.628 596.381 104.917 590.636L101.083 591.778C102.732 597.314 103.52 601.91 103.52 605.607L107.52 605.607ZM103.35 593.176L127.65 588.856L126.95 584.918L102.65 589.238L103.35 593.176ZM130 570.768L130 572.768L132 572.768L132 570.768L130 570.768ZM1.47995 570.768L-0.52005 570.768L-0.52005 572.768L1.47995 572.768L1.47995 570.768ZM1.47995 535.127L1.47995 533.127L-0.520052 533.128L-0.520052 535.128L1.47995 535.127ZM130 535.127L132 535.127L132 533.127L130 533.127L130 535.127ZM130 568.768L1.47995 568.768L1.47995 572.768L130 572.768L130 568.768ZM3.47995 570.768L3.47995 535.127L-0.520052 535.128L-0.52005 570.768L3.47995 570.768ZM1.47995 537.127L130 537.127L130 533.127L1.47995 533.127L1.47995 537.127ZM128 535.127L128 570.768L132 570.768L132 535.127L128 535.127ZM91.1199 481.139L89.1199 481.139L89.1199 483.353L91.323 483.128L91.1199 481.139ZM104.62 474.299L106.191 475.536L106.212 475.51L106.231 475.484L104.62 474.299ZM99.58 436.679L97.58 436.679L97.58 438.038L98.8432 438.538L99.58 436.679ZM99.58 403.739L100.013 401.786L97.58 401.247L97.58 403.739L99.58 403.739ZM120.1 500.039L118.588 498.73L120.1 500.039ZM57.4599 507.959L58.481 506.239L58.4693 506.232L57.4599 507.959ZM39.28 488.159L41.0688 487.264L41.0639 487.254L41.0588 487.245L39.28 488.159ZM45.5799 417.059L47.0666 418.397L47.0758 418.386L45.5799 417.059ZM91.1199 402.659L93.1199 402.659L93.1199 400.659L91.1199 400.659L91.1199 402.659ZM72.22 435.779L74.22 435.779L74.22 433.665L72.109 433.782L72.22 435.779ZM60.52 473.219L58.8925 474.381L58.9005 474.392L58.9087 474.404L60.52 473.219ZM72.22 480.419L71.9233 482.397L74.22 482.741L74.22 480.419L72.22 480.419ZM91.323 483.128C97.6413 482.484 102.678 479.995 106.191 475.536L103.049 473.061C100.322 476.522 96.3586 478.594 90.9169 479.149L91.323 483.128ZM106.231 475.484C109.567 470.947 111.12 464.9 111.12 457.559L107.12 457.559C107.12 464.378 105.673 469.49 103.009 473.114L106.231 475.484ZM111.12 457.559C111.12 445.945 107.879 437.816 100.317 434.819L98.8432 438.538C104.001 440.582 107.12 446.372 107.12 457.559L111.12 457.559ZM101.58 436.679L101.58 403.739L97.58 403.739L97.58 436.679L101.58 436.679ZM99.1472 405.691C109.754 408.042 117.6 413.526 122.846 422.148C128.136 430.84 130.88 442.881 130.88 458.459L134.88 458.459C134.88 442.476 132.074 429.618 126.263 420.069C120.41 410.451 111.606 404.355 100.013 401.786L99.1472 405.691ZM130.88 458.459C130.88 476.038 126.693 489.369 118.588 498.73L121.612 501.348C130.547 491.028 134.88 476.64 134.88 458.459L130.88 458.459ZM118.588 498.73C110.523 508.044 99.0659 512.799 83.92 512.799L83.92 516.799C99.974 516.799 112.637 511.714 121.612 501.348L118.588 498.73ZM83.92 512.799C74.2769 512.799 65.8175 510.595 58.481 506.239L56.4389 509.678C64.4624 514.442 73.643 516.799 83.92 516.799L83.92 512.799ZM58.4693 506.232C51.0279 501.882 45.2278 495.582 41.0688 487.264L37.4911 489.053C41.9721 498.015 48.292 504.916 56.4506 509.685L58.4693 506.232ZM41.0588 487.245C36.7917 478.941 34.6199 469.067 34.6199 457.559L30.6199 457.559C30.6199 469.57 32.8882 480.097 37.5011 489.073L41.0588 487.245ZM34.6199 457.559C34.6199 440.479 38.8574 427.518 47.0665 418.397L44.0934 415.721C35.0225 425.799 30.6199 439.838 30.6199 457.559L34.6199 457.559ZM47.0758 418.386C55.1326 409.308 66.6524 404.659 81.94 404.659L81.94 400.659C65.7874 400.659 53.0672 405.609 44.0841 415.731L47.0758 418.386ZM81.94 404.659L91.1199 404.659L91.1199 400.659L81.94 400.659L81.94 404.659ZM89.1199 402.659L89.1199 481.139L93.1199 481.139L93.1199 402.659L89.1199 402.659ZM72.109 433.782C66.2266 434.109 61.5688 436.339 58.4514 440.634C55.4004 444.838 54.0199 450.755 54.0199 458.099L58.0199 458.099C58.0199 451.163 59.3395 446.22 61.6886 442.984C63.9711 439.839 67.4133 438.049 72.3309 437.776L72.109 433.782ZM54.0199 458.099C54.02 464.335 55.6174 469.796 58.8925 474.381L62.1474 472.056C59.4225 468.241 58.0199 463.622 58.0199 458.099L54.0199 458.099ZM58.9087 474.404C62.2086 478.891 66.5721 481.594 71.9233 482.397L72.5166 478.441C68.2678 477.804 64.8313 475.706 62.1313 472.034L58.9087 474.404ZM74.22 480.419L74.22 435.779L70.22 435.779L70.22 480.419L74.22 480.419ZM130 304.93L130 306.93L132 306.93L132 304.93L130 304.93ZM117.22 304.93L117.22 302.93L111.666 302.93L115.945 306.471L117.22 304.93ZM126.94 364.87L128.671 365.872L128.675 365.866L128.678 365.859L126.94 364.87ZM110.02 381.07L110.937 382.847L110.954 382.838L110.972 382.829L110.02 381.07ZM57.6399 381.07L56.7346 382.853L56.7455 382.859L56.7566 382.864L57.6399 381.07ZM39.2799 364.15L37.5625 365.175L37.5662 365.181L37.5699 365.187L39.2799 364.15ZM45.9399 305.65L47.2364 307.173L51.3744 303.65L45.9399 303.65L45.9399 305.65ZM1.47994 305.65L-0.520062 305.65L-0.520062 307.65L1.47994 307.65L1.47994 305.65ZM1.47994 270.01L1.47994 268.01L-0.520063 268.01L-0.520063 270.01L1.47994 270.01ZM130 270.01L132 270.01L132 268.01L130 268.01L130 270.01ZM65.0199 345.07L63.627 346.505L63.638 346.516L63.6492 346.526L65.0199 345.07ZM100.48 345.07L101.851 346.526L100.48 345.07ZM100.12 311.59L101.572 310.214L101.564 310.206L101.555 310.197L100.12 311.59ZM130 302.93L117.22 302.93L117.22 306.93L130 306.93L130 302.93ZM115.945 306.471C125.853 314.671 130.88 326.185 130.88 341.29L134.88 341.29C134.88 325.195 129.467 312.469 118.495 303.389L115.945 306.471ZM130.88 341.29C130.88 349.737 128.974 357.25 125.202 363.881L128.678 365.859C132.826 358.57 134.88 350.363 134.88 341.29L130.88 341.29ZM125.209 363.868C121.444 370.371 116.082 375.517 109.068 379.311L110.972 382.829C118.598 378.703 124.516 373.049 128.671 365.872L125.209 363.868ZM109.103 379.293C101.992 382.963 93.6766 384.83 84.0999 384.83L84.0999 388.83C94.2033 388.83 103.168 386.857 110.937 382.847L109.103 379.293ZM84.0999 384.83C74.5256 384.83 66.0142 382.963 58.5233 379.276L56.7566 382.864C64.8657 386.856 73.9943 388.83 84.0999 388.83L84.0999 384.83ZM58.5453 379.287C51.0702 375.492 45.2322 370.107 40.99 363.113L37.5699 365.187C42.2077 372.833 48.6097 378.728 56.7346 382.853L58.5453 379.287ZM40.9974 363.125C36.7685 356.039 34.6199 347.704 34.6199 338.05L30.6199 338.05C30.6199 348.316 32.9113 357.381 37.5625 365.175L40.9974 363.125ZM34.6199 338.05C34.6199 324.465 38.8939 314.275 47.2364 307.173L44.6435 304.127C35.226 312.145 30.6199 323.555 30.6199 338.05L34.6199 338.05ZM45.9399 303.65L1.47994 303.65L1.47994 307.65L45.9399 307.65L45.9399 303.65ZM3.47994 305.65L3.47994 270.01L-0.520063 270.01L-0.520062 305.65L3.47994 305.65ZM1.47994 272.01L130 272.01L130 268.01L1.47994 268.01L1.47994 272.01ZM128 270.01L128 304.93L132 304.93L132 270.01L128 270.01ZM81.2199 303.47C74.0639 303.47 68.1226 305.659 63.6057 310.176L66.4342 313.004C70.0773 309.361 74.936 307.47 81.2199 307.47L81.2199 303.47ZM63.6057 310.176C59.0754 314.706 56.8999 320.776 56.8999 328.15L60.8999 328.15C60.8999 321.604 62.8045 316.634 66.4342 313.004L63.6057 310.176ZM56.8999 328.15C56.8999 335.847 59.0556 342.068 63.627 346.505L66.4129 343.635C62.8243 340.152 60.8999 335.093 60.8999 328.15L56.8999 328.15ZM63.6492 346.526C68.2297 350.837 74.8016 352.83 83.02 352.83L83.02 348.83C75.3983 348.83 69.9702 346.983 66.3907 343.614L63.6492 346.526ZM83.02 352.83C90.908 352.83 97.2859 350.823 101.851 346.526L99.1092 343.614C95.514 346.997 90.2519 348.83 83.02 348.83L83.02 352.83ZM101.851 346.526C106.432 342.214 108.6 336.167 108.6 328.69L104.6 328.69C104.6 335.373 102.688 340.246 99.1092 343.614L101.851 346.526ZM108.6 328.69C108.6 321.388 106.277 315.181 101.572 310.214L98.668 312.965C102.603 317.119 104.6 322.312 104.6 328.69L108.6 328.69ZM101.555 310.197C97.1877 305.697 91.6149 303.47 84.9999 303.47L84.9999 307.47C90.625 307.47 95.1322 309.323 98.6848 312.983L101.555 310.197ZM84.9999 303.47L81.2199 303.47L81.2199 307.47L84.9999 307.47L84.9999 303.47ZM112 168.541L112 166.541L106.727 166.541L110.674 170.037L112 168.541ZM120.64 227.581L118.883 226.625L120.64 227.581ZM104.62 243.781L105.609 245.519L104.62 243.781ZM55.8399 243.781L56.8038 242.028L55.8399 243.781ZM38.9199 226.861L40.6669 225.887L40.6616 225.877L38.9199 226.861ZM36.0399 181.681L37.8824 182.459L37.8898 182.441L37.8969 182.423L36.0399 181.681ZM46.2999 167.821L47.5686 169.367L51.8904 165.821L46.2999 165.821L46.2999 167.821ZM35.4999 167.821L33.4999 167.821L33.4999 169.821L35.4999 169.821L35.4999 167.821ZM35.4999 132.901L35.4999 130.901L33.4999 130.901L33.4999 132.901L35.4999 132.901ZM154.48 146.941L152.982 148.266L152.99 148.275L154.48 146.941ZM158.62 229.561L156.909 228.525L156.905 228.532L158.62 229.561ZM133.6 245.221L131.6 245.221L131.6 247.492L133.853 247.204L133.6 245.221ZM133.6 210.841L133.05 208.918L131.6 209.332L131.6 210.841L133.6 210.841ZM140.98 204.721L142.769 205.615L142.775 205.602L142.782 205.588L140.98 204.721ZM137.92 173.941L136.506 175.355L136.518 175.367L136.53 175.379L137.92 173.941ZM70.7799 169.621L71.5227 171.478L71.5394 171.471L71.556 171.464L70.7799 169.621ZM63.9399 174.481L65.3771 175.871L65.3845 175.864L65.3918 175.856L63.9399 174.481ZM63.9399 207.601L65.4198 206.255L63.9399 207.601ZM94.8999 174.481L93.3814 175.782L93.3899 175.792L94.8999 174.481ZM110.674 170.037C119.635 177.978 124.22 189.26 124.22 204.181L128.22 204.181C128.22 188.381 123.325 175.903 113.326 167.044L110.674 170.037ZM124.22 204.181C124.22 212.649 122.424 220.113 118.883 226.625L122.397 228.536C126.295 221.368 128.22 213.232 128.22 204.181L124.22 204.181ZM118.883 226.625C115.346 233.128 110.277 238.261 103.631 242.042L105.609 245.519C112.883 241.38 118.494 235.713 122.397 228.536L118.883 226.625ZM103.631 242.042C97.016 245.806 89.2671 247.721 80.3199 247.721L80.3199 251.721C89.8527 251.721 98.3039 249.675 105.609 245.519L103.631 242.042ZM80.3199 247.721C71.4992 247.721 63.6771 245.808 56.8038 242.028L54.8761 245.533C62.4028 249.673 70.9007 251.721 80.3199 251.721L80.3199 247.721ZM56.8038 242.028C49.9396 238.253 44.568 232.886 40.6669 225.887L37.173 227.834C41.4319 235.475 47.3403 241.388 54.8761 245.533L56.8038 242.028ZM40.6616 225.877C36.6552 218.78 34.6199 210.489 34.6199 200.941L30.6199 200.941C30.6199 211.072 32.7847 220.061 37.1783 227.844L40.6616 225.877ZM34.6199 200.941C34.6199 193.699 35.7303 187.556 37.8824 182.459L34.1974 180.903C31.7896 186.605 30.6199 193.303 30.6199 200.941L34.6199 200.941ZM37.8969 182.423C39.9264 177.349 43.1382 173.002 47.5686 169.367L45.0313 166.275C40.1017 170.319 36.4734 175.212 34.183 180.938L37.8969 182.423ZM46.2999 165.821L35.4999 165.821L35.4999 169.821L46.2999 169.821L46.2999 165.821ZM37.4999 167.821L37.4999 132.901L33.4999 132.901L33.4999 167.821L37.4999 167.821ZM35.4999 134.901L115.78 134.901L115.78 130.901L35.4999 130.901L35.4999 134.901ZM115.78 134.901C132.965 134.901 145.215 139.486 152.982 148.266L155.978 145.615C147.185 135.675 133.635 130.901 115.78 130.901L115.78 134.901ZM152.99 148.275C160.797 156.987 164.9 170.803 164.9 190.141L168.9 190.141C168.9 170.359 164.722 155.374 155.969 145.606L152.99 148.275ZM164.9 190.141C164.9 207.137 162.158 219.854 156.909 228.525L160.331 230.596C166.122 221.028 168.9 207.465 168.9 190.141L164.9 190.141ZM156.905 228.532C151.849 236.958 144.077 241.867 133.347 243.237L133.853 247.204C145.683 245.694 154.591 240.163 160.335 230.59L156.905 228.532ZM135.6 245.221L135.6 210.841L131.6 210.841L131.6 245.221L135.6 245.221ZM134.149 212.764C138.047 211.65 140.958 209.238 142.769 205.615L139.191 203.826C137.882 206.444 135.873 208.111 133.05 208.918L134.149 212.764ZM142.782 205.588C144.537 201.943 145.32 196.784 145.32 190.321L141.32 190.321C141.32 196.577 140.543 201.018 139.178 203.853L142.782 205.588ZM145.32 190.321C145.32 182.601 143.455 176.51 139.31 172.503L136.53 175.379C139.585 178.332 141.32 183.16 141.32 190.321L145.32 190.321ZM139.334 172.526C135.211 168.403 129.015 166.541 121.18 166.541L121.18 170.541C128.465 170.541 133.429 172.278 136.506 175.355L139.334 172.526ZM121.18 166.541L112 166.541L112 170.541L121.18 170.541L121.18 166.541ZM78.6999 166.181C75.4887 166.181 72.5758 166.694 70.0038 167.777L71.556 171.464C73.5441 170.627 75.9112 170.181 78.6999 170.181L78.6999 166.181ZM70.0372 167.764C67.3174 168.852 64.8049 170.66 62.488 173.105L65.3918 175.856C67.395 173.742 69.4425 172.31 71.5227 171.478L70.0372 167.764ZM62.5027 173.09C58.4205 177.308 56.5399 183.347 56.5399 190.861L60.5399 190.861C60.5399 183.974 62.2594 179.093 65.3771 175.871L62.5027 173.09ZM56.5399 190.861C56.5399 198.384 58.4241 204.506 62.4601 208.946L65.4198 206.255C62.2558 202.775 60.5399 197.738 60.5399 190.861L56.5399 190.861ZM62.4601 208.946C66.5384 213.432 72.3633 215.541 79.5999 215.541L79.5999 211.541C73.1566 211.541 68.5415 209.689 65.4198 206.255L62.4601 208.946ZM79.5999 215.541C86.714 215.541 92.5082 213.496 96.6964 209.172L93.8235 206.389C90.5717 209.746 85.9259 211.541 79.5999 211.541L79.5999 215.541ZM96.6964 209.172C100.883 204.851 102.84 198.827 102.84 191.401L98.8399 191.401C98.8399 198.135 97.077 203.031 93.8235 206.389L96.6964 209.172ZM102.84 191.401C102.84 184.257 100.722 178.135 96.41 173.169L93.3899 175.792C96.9977 179.947 98.8399 185.104 98.8399 191.401L102.84 191.401ZM96.4185 173.179C92.4209 168.515 87.1762 166.181 80.8599 166.181L80.8599 170.181C86.0637 170.181 90.179 172.046 93.3814 175.782L96.4185 173.179ZM80.8599 166.181L78.6999 166.181L78.6999 170.181L80.8599 170.181L80.8599 166.181ZM91.1199 78.9513L89.1199 78.9513L89.1199 81.1658L91.323 80.9409L91.1199 78.9513ZM104.62 72.1112L106.191 73.349L106.212 73.3229L106.231 73.296L104.62 72.1112ZM99.5799 34.4912L97.5799 34.4912L97.5799 35.8501L98.8432 36.3506L99.5799 34.4912ZM99.5799 1.55126L100.013 -0.401374L97.5799 -0.940558L97.5799 1.55126L99.5799 1.55126ZM120.1 97.8512L118.588 96.5421L120.1 97.8512ZM57.4599 105.771L58.481 104.052L58.4693 104.045L57.4599 105.771ZM39.2799 85.9712L41.0688 85.0768L41.0638 85.0669L41.0588 85.0571L39.2799 85.9712ZM45.5799 14.8712L47.0666 16.2092L47.0758 16.1988L45.5799 14.8712ZM91.1199 0.471185L93.1199 0.471185L93.1199 -1.52882L91.1199 -1.52882L91.1199 0.471185ZM72.2199 33.5913L74.2199 33.5913L74.2199 31.477L72.109 31.5944L72.2199 33.5913ZM60.5199 71.0312L58.8925 72.1937L58.9005 72.205L58.9086 72.2161L60.5199 71.0312ZM72.2199 78.2312L71.9233 80.2091L74.2199 80.5536L74.2199 78.2312L72.2199 78.2312ZM91.323 80.9409C97.6413 80.2961 102.678 77.808 106.191 73.349L103.049 70.8735C100.322 74.3345 96.3586 76.4062 90.9169 76.9615L91.323 80.9409ZM106.231 73.296C109.567 68.7599 111.12 62.7123 111.12 55.3712L107.12 55.3712C107.12 62.1903 105.673 67.3026 103.009 70.9265L106.231 73.296ZM111.12 55.3712C111.12 43.7577 107.879 35.6282 100.317 32.6318L98.8432 36.3506C104.001 38.3943 107.12 44.1848 107.12 55.3712L111.12 55.3712ZM101.58 34.4912L101.58 1.55126L97.5799 1.55126L97.5799 34.4912L101.58 34.4912ZM99.1472 3.5039C109.754 5.85448 117.599 11.339 122.846 19.9609C128.136 28.6522 130.88 40.694 130.88 56.2712L134.88 56.2712C134.88 40.2884 132.074 27.4303 126.263 17.8816C120.41 8.26354 111.606 2.16796 100.013 -0.401374L99.1472 3.5039ZM130.88 56.2712C130.88 73.8502 126.693 87.1818 118.588 96.5421L121.612 99.1604C130.547 88.8407 134.88 74.4523 134.88 56.2712L130.88 56.2712ZM118.588 96.5421C110.523 105.856 99.0659 110.611 83.9199 110.611L83.9199 114.611C99.974 114.611 112.636 109.526 121.612 99.1604L118.588 96.5421ZM83.9199 110.611C74.2769 110.611 65.8175 108.408 58.481 104.052L56.4389 107.491C64.4624 112.255 73.643 114.611 83.9199 114.611L83.9199 110.611ZM58.4693 104.045C51.0279 99.6942 45.2278 93.3948 41.0688 85.0768L37.4911 86.8657C41.9721 95.8276 48.292 102.728 56.4505 107.498L58.4693 104.045ZM41.0588 85.0571C36.7916 76.7534 34.6199 66.8795 34.6199 55.3712L30.6199 55.3712C30.6199 67.3829 32.8882 77.9091 37.5011 86.8854L41.0588 85.0571ZM34.6199 55.3712C34.6199 38.2915 38.8573 25.3304 47.0665 16.2092L44.0933 13.5333C35.0225 23.6119 30.6199 37.651 30.6199 55.3712L34.6199 55.3712ZM47.0758 16.1988C55.1326 7.12072 66.6524 2.47119 81.9399 2.47119L81.9399 -1.52881C65.7874 -1.52881 53.0672 3.42175 44.0841 13.5437L47.0758 16.1988ZM81.9399 2.47119L91.1199 2.47118L91.1199 -1.52882L81.9399 -1.52881L81.9399 2.47119ZM89.1199 0.471185L89.1199 78.9513L93.1199 78.9513L93.1199 0.471185L89.1199 0.471185ZM72.109 31.5944C66.2266 31.9211 61.5688 34.1512 58.4513 38.4464C55.4004 42.65 54.0199 48.5673 54.0199 55.9113L58.0199 55.9112C58.0199 48.9752 59.3395 44.0325 61.6885 40.796C63.9711 37.6512 67.4133 35.8613 72.3309 35.5881L72.109 31.5944ZM54.0199 55.9113C54.0199 62.1478 55.6173 67.6085 58.8925 72.1937L62.1474 69.8688C59.4225 66.054 58.0199 61.4347 58.0199 55.9112L54.0199 55.9113ZM58.9086 72.2161C62.2086 76.704 66.572 79.4065 71.9233 80.2091L72.5166 76.2534C68.2678 75.6161 64.8312 73.5184 62.1312 69.8464L58.9086 72.2161ZM74.2199 78.2312L74.2199 33.5913L70.2199 33.5913L70.2199 78.2312L74.2199 78.2312Z" fill="white"/>
</svg>
