<svg width="168" height="800" viewBox="0 0 168 800" fill="none" xmlns="http://www.w3.org/2000/svg">
<path opacity="0.44" d="M133.5 31.0999L135.5 31.0999L135.5 29.0999L133.5 29.0999L133.5 31.0999ZM89.5 31.0999L89.5 29.0999L87.5 29.0999L87.5 31.0999L89.5 31.0999ZM161 0.299877L163 0.299877L163 -1.70012L161 -1.70012L161 0.299877ZM7 0.29987L7 -1.70013L5 -1.70013L5 0.29987L7 0.29987ZM7 31.0999L5 31.0999L5 33.0999L7 33.0999L7 31.0999ZM62 31.0999L64 31.0999L64 29.0999L62 29.0999L62 31.0999ZM62 42.9799L63.1291 44.6306L64 44.035L64 42.9799L62 42.9799ZM7 80.5999L5.87086 78.9491L5 79.5448L5 80.5999L7 80.5999ZM6.99999 116.9L4.99999 116.9L4.99999 120.7L8.13226 118.548L6.99999 116.9ZM65.3 76.8599L67.2053 76.2518L66.3868 73.6872L64.1677 75.2112L65.3 76.8599ZM131.5 31.0999L131.5 54.1999L135.5 54.1999L135.5 31.0999L131.5 31.0999ZM131.5 54.1999C131.5 61.4888 129.703 67.1824 126.424 71.024C123.186 74.8174 118.287 77.0599 111.5 77.0599L111.5 81.0599C119.233 81.0599 125.334 78.4624 129.466 73.6208C133.557 68.8273 135.5 62.0909 135.5 54.1999L131.5 54.1999ZM111.5 77.0599C104.713 77.0599 99.8139 74.8174 96.5762 71.024C93.2975 67.1824 91.5 61.4888 91.5 54.1999L87.5 54.1999C87.5 62.0909 89.4425 68.8273 93.5338 73.6208C97.6661 78.4624 103.767 81.0599 111.5 81.0599L111.5 77.0599ZM91.5 54.1999L91.5 31.0999L87.5 31.0999L87.5 54.1999L91.5 54.1999ZM89.5 33.0999L133.5 33.0999L133.5 29.0999L89.5 29.0999L89.5 33.0999ZM161 -1.70012L7 -1.70013L7 2.29987L161 2.29988L161 -1.70012ZM5 0.29987L5 31.0999L9 31.0999L9 0.29987L5 0.29987ZM7 33.0999L62 33.0999L62 29.0999L7 29.0999L7 33.0999ZM60 31.0999L60 42.9799L64 42.9799L64 31.0999L60 31.0999ZM60.8709 41.3291L5.87086 78.9491L8.12913 82.2506L63.1291 44.6306L60.8709 41.3291ZM5 80.5999L4.99999 116.9L8.99999 116.9L9 80.5999L5 80.5999ZM8.13226 118.548L66.4323 78.5085L64.1677 75.2112L5.86773 115.251L8.13226 118.548ZM63.3947 77.468C66.8093 88.1671 72.8179 96.7922 81.0409 102.736C89.2631 108.679 99.5867 111.86 111.5 111.86L111.5 107.86C100.313 107.86 90.8369 104.881 83.3841 99.494C75.9321 94.1076 70.3907 86.2327 67.2053 76.2518L63.3947 77.468ZM111.5 111.86C127.288 111.86 140.236 106.277 149.214 96.1437C158.169 86.0379 163 71.6075 163 54.1999L159 54.1999C159 70.8923 154.371 84.2918 146.221 93.491C138.094 102.662 126.292 107.86 111.5 107.86L111.5 111.86ZM163 54.1999L163 0.299877L159 0.299877L159 54.1999L163 54.1999ZM108.2 127.671L110.2 127.671L110.2 125.671L108.2 125.671L108.2 127.671ZM6.99999 127.671L6.99999 125.671L4.99999 125.671L4.99999 127.671L6.99999 127.671ZM6.99999 157.811L4.99999 157.811L4.99999 159.811L6.99999 159.811L6.99999 157.811ZM108.2 157.811L108.2 159.811L110.2 159.811L110.2 157.811L108.2 157.811ZM108.2 125.671L6.99999 125.671L6.99999 129.671L108.2 129.671L108.2 125.671ZM4.99999 127.671L4.99999 157.811L8.99999 157.811L8.99999 127.671L4.99999 127.671ZM6.99999 159.811L108.2 159.811L108.2 155.811L6.99999 155.811L6.99999 159.811ZM110.2 157.811L110.2 127.671L106.2 127.671L106.2 157.811L110.2 157.811ZM148.24 122.591C137.564 122.591 129.08 131.742 129.08 142.851L133.08 142.851C133.08 133.721 139.996 126.591 148.24 126.591L148.24 122.591ZM129.08 142.851C129.08 153.961 137.564 163.111 148.24 163.111L148.24 159.111C139.996 159.111 133.08 151.982 133.08 142.851L129.08 142.851ZM148.24 163.111C158.916 163.111 167.4 153.961 167.4 142.851L163.4 142.851C163.4 151.982 156.484 159.111 148.24 159.111L148.24 163.111ZM167.4 142.851C167.4 131.742 158.916 122.591 148.24 122.591L148.24 126.591C156.484 126.591 163.4 133.721 163.4 142.851L167.4 142.851ZM143.4 187.48L145.4 187.48L145.4 185.48L143.4 185.48L143.4 187.48ZM108.2 187.48L106.2 187.48L106.2 189.48L108.2 189.48L108.2 187.48ZM108.2 170.98L110.2 170.98L110.2 168.98L108.2 168.98L108.2 170.98ZM82.9 170.98L82.9 168.98L80.9 168.98L80.9 170.98L82.9 170.98ZM82.9 187.48L82.9 189.48L84.9 189.48L84.9 187.48L82.9 187.48ZM6.99999 187.48L6.99999 185.48L4.99999 185.48L4.99999 187.48L6.99999 187.48ZM6.99999 217.18L4.99999 217.18L4.99999 219.18L6.99999 219.18L6.99999 217.18ZM82.9 217.18L84.9 217.18L84.9 215.18L82.9 215.18L82.9 217.18ZM82.9 233.68L80.9 233.68L80.9 235.68L82.9 235.68L82.9 233.68ZM108.2 233.68L108.2 235.68L110.2 235.68L110.2 233.68L108.2 233.68ZM108.2 217.18L108.2 215.18L106.2 215.18L106.2 217.18L108.2 217.18ZM143.4 217.18L143.4 219.18L145.4 219.18L145.4 217.18L143.4 217.18ZM143.4 185.48L108.2 185.48L108.2 189.48L143.4 189.48L143.4 185.48ZM110.2 187.48L110.2 170.98L106.2 170.98L106.2 187.48L110.2 187.48ZM108.2 168.98L82.9 168.98L82.9 172.98L108.2 172.98L108.2 168.98ZM80.9 170.98L80.9 187.48L84.9 187.48L84.9 170.98L80.9 170.98ZM82.9 185.48L6.99999 185.48L6.99999 189.48L82.9 189.48L82.9 185.48ZM4.99999 187.48L4.99999 217.18L8.99999 217.18L8.99999 187.48L4.99999 187.48ZM6.99999 219.18L82.9 219.18L82.9 215.18L6.99999 215.18L6.99999 219.18ZM80.9 217.18L80.9 233.68L84.9 233.68L84.9 217.18L80.9 217.18ZM82.9 235.68L108.2 235.68L108.2 231.68L82.9 231.68L82.9 235.68ZM110.2 233.68L110.2 217.18L106.2 217.18L106.2 233.68L110.2 233.68ZM108.2 219.18L143.4 219.18L143.4 215.18L108.2 215.18L108.2 219.18ZM145.4 217.18L145.4 187.48L141.4 187.48L141.4 217.18L145.4 217.18ZM47.26 308.515L47.26 310.515L48.6336 310.515L49.1267 309.233L47.26 308.515ZM79.16 254.835L78.4072 252.982L76.0391 253.944L77.5425 256.011L79.16 254.835ZM63.32 308.515L61.5427 307.597L60.037 310.515L63.32 310.515L63.32 308.515ZM19.98 308.515L19.98 310.515L20.8597 306.719L19.98 308.515ZM6.99999 308.515L6.99999 306.515L4.99999 306.515L4.99999 308.515L6.99999 308.515ZM6.99998 338.215L4.99998 338.215L4.99998 340.215L6.99998 340.215L6.99998 338.215ZM100.28 246.255L101.891 245.07L100.969 243.816L99.5272 244.402L100.28 246.255ZM38.68 268.935C41.9876 268.935 44.3659 270.753 46.0339 274.234C47.7455 277.806 48.56 282.907 48.56 288.715L52.56 288.715C52.56 282.642 51.7245 276.853 49.6411 272.505C47.5141 268.066 43.9524 264.935 38.68 264.935L38.68 268.935ZM48.56 288.715C48.56 295.57 47.4858 302.356 45.3933 307.797L49.1267 309.233C51.4342 303.233 52.56 295.94 52.56 288.715L48.56 288.715ZM47.26 306.515L46.6 306.515L46.6 310.515L47.26 310.515L47.26 306.515ZM46.6 306.515C39.953 306.515 35.6977 303.943 33.0166 300.017C30.2545 295.972 29.02 290.271 29.02 283.875L25.02 283.875C25.02 290.678 26.3155 297.297 29.7134 302.273C33.1922 307.367 38.727 310.515 46.6 310.515L46.6 306.515ZM29.02 283.875C29.02 279.17 30.0187 275.361 31.7138 272.795C33.3579 270.305 35.6718 268.935 38.68 268.935L38.68 264.935C34.2082 264.935 30.692 267.084 28.3762 270.59C26.1113 274.019 25.02 278.68 25.02 283.875L29.02 283.875ZM77.5425 256.011C79.1512 258.223 81.5458 262.758 83.538 268.573C85.5227 274.366 87.06 281.293 87.06 288.275L91.06 288.275C91.06 280.737 89.4072 273.363 87.322 267.277C85.2442 261.212 82.6888 256.286 80.7775 253.658L77.5425 256.011ZM87.06 288.275C87.06 293.455 85.7094 298.077 83.3424 301.347C81.0121 304.566 77.6849 306.515 73.44 306.515L73.44 310.515C79.0951 310.515 83.5779 307.843 86.5826 303.692C89.5506 299.592 91.06 294.094 91.06 288.275L87.06 288.275ZM73.44 306.515L63.32 306.515L63.32 310.515L73.44 310.515L73.44 306.515ZM65.0972 309.432C68.7885 302.28 71.7 291.835 71.7 276.835L67.7 276.835C67.7 291.315 64.8915 301.109 61.5427 307.597L65.0972 309.432ZM71.7 276.835C71.7 268.729 69.5424 258.365 63.9692 249.962C58.3357 241.468 49.2171 235.015 35.6 235.015L35.6 239.015C47.7229 239.015 55.6543 244.662 60.6357 252.173C65.6776 259.775 67.7 269.32 67.7 276.835L71.7 276.835ZM35.6 235.015C25.2629 235.015 16.4362 238.983 10.2266 246.37C4.04551 253.723 0.599994 264.286 0.599993 277.275L4.59999 277.275C4.59999 264.963 7.86447 255.396 13.2884 248.944C18.6838 242.526 26.357 239.015 35.6 239.015L35.6 235.015ZM0.599993 277.275C0.599993 292.637 7.51599 304.637 19.1003 310.311L20.8597 306.719C10.884 301.833 4.59999 291.393 4.59999 277.275L0.599993 277.275ZM19.98 306.515L6.99999 306.515L6.99999 310.515L19.98 310.515L19.98 306.515ZM4.99999 308.515L4.99998 338.215L8.99998 338.215L8.99999 308.515L4.99999 308.515ZM6.99998 340.215L79.6 340.215L79.6 336.215L6.99998 336.215L6.99998 340.215ZM79.6 340.215C91.2125 340.215 100.342 334.774 106.486 325.486C112.576 316.278 115.7 303.364 115.7 288.275L111.7 288.275C111.7 302.886 108.664 314.942 103.149 323.279C97.688 331.536 89.7675 336.215 79.6 336.215L79.6 340.215ZM115.7 288.275C115.7 269.498 107.585 252.813 101.891 245.07L98.6687 247.44C103.975 254.657 111.7 270.531 111.7 288.275L115.7 288.275ZM99.5272 244.402L78.4072 252.982L79.9127 256.688L101.033 248.108L99.5272 244.402ZM84 420.906C33.5305 420.906 -1.60003 459.508 -1.60003 508.706L2.39997 508.706C2.39997 461.544 35.9095 424.906 84 424.906L84 420.906ZM-1.60003 508.706C-1.60003 557.904 33.5305 596.506 84 596.506L84 592.506C35.9095 592.506 2.39997 555.868 2.39997 508.706L-1.60003 508.706ZM84 596.506C134.486 596.506 169.6 556.787 169.6 508.706L165.6 508.706C165.6 554.786 132.074 592.506 84 592.506L84 596.506ZM169.6 508.706C169.6 461.743 134.502 420.906 84 420.906L84 424.906C132.058 424.906 165.6 463.71 165.6 508.706L169.6 508.706ZM84 456.366C116.529 456.366 137.44 479.424 137.44 508.706L141.44 508.706C141.44 477.268 118.791 452.366 84 452.366L84 456.366ZM137.44 508.706C137.44 523.965 132.166 537.022 122.928 546.259C113.694 555.494 100.363 561.046 84 561.046L84 565.046C101.296 565.046 115.686 559.158 125.757 549.088C135.824 539.02 141.44 524.907 141.44 508.706L137.44 508.706ZM84 561.046C51.4711 561.046 30.56 537.988 30.56 508.706L26.56 508.706C26.56 540.144 49.2088 565.046 84 565.046L84 561.046ZM30.56 508.706C30.56 479.424 51.4711 456.366 84 456.366L84 452.366C49.2088 452.366 26.56 477.268 26.56 508.706L30.56 508.706ZM77.84 679.003L76.2225 677.827L74.973 679.545L76.7632 680.689L77.84 679.003ZM101.6 694.183L100.523 695.869L101.752 696.654L102.875 695.724L101.6 694.183ZM95.44 644.023L95.44 642.023L88.8344 642.023L94.3306 645.687L95.44 644.023ZM108.2 644.023L108.2 646.023L110.2 646.023L110.2 644.023L108.2 644.023ZM108.2 613.223L110.2 613.223L110.2 611.223L108.2 611.223L108.2 613.223ZM6.99997 613.223L6.99997 611.223L4.99997 611.223L4.99997 613.223L6.99997 613.223ZM6.99997 644.023L4.99997 644.023L4.99997 646.023L6.99997 646.023L6.99997 644.023ZM76.7632 680.689L100.523 695.869L102.677 692.498L78.9167 677.318L76.7632 680.689ZM102.875 695.724C109.804 689.99 113.5 681.892 113.5 669.763L109.5 669.763C109.5 680.955 106.156 687.817 100.325 692.643L102.875 695.724ZM113.5 669.763C113.5 659.44 106.821 649.207 96.5494 642.359L94.3306 645.687C103.859 652.039 109.5 661.167 109.5 669.763L113.5 669.763ZM95.44 646.023L108.2 646.023L108.2 642.023L95.44 642.023L95.44 646.023ZM110.2 644.023L110.2 613.223L106.2 613.223L106.2 644.023L110.2 644.023ZM108.2 611.223L6.99997 611.223L6.99997 615.223L108.2 615.223L108.2 611.223ZM4.99997 613.223L4.99997 644.023L8.99997 644.023L8.99997 613.223L4.99997 613.223ZM6.99997 646.023L64.2 646.023L64.2 642.023L6.99997 642.023L6.99997 646.023ZM64.2 646.023C71.2619 646.023 75.2525 647.481 77.548 649.886C79.8602 652.31 80.9 656.156 80.9 662.063L84.9 662.063C84.9 655.871 83.8497 650.697 80.442 647.125C77.0174 643.536 71.6581 642.023 64.2 642.023L64.2 646.023ZM80.9 662.063C80.9 667.475 79.434 673.411 76.2225 677.827L79.4574 680.18C83.2859 674.916 84.9 668.091 84.9 662.063L80.9 662.063ZM47.26 769.999L47.26 771.999L48.6336 771.999L49.1267 770.717L47.26 769.999ZM79.16 716.319L78.4072 714.466L76.0391 715.428L77.5425 717.495L79.16 716.319ZM63.32 769.999L61.5427 769.082L60.037 771.999L63.32 771.999L63.32 769.999ZM19.98 769.999L19.98 771.999L20.8597 768.203L19.98 769.999ZM6.99997 769.999L6.99997 767.999L4.99997 767.999L4.99997 769.999L6.99997 769.999ZM6.99996 799.699L4.99996 799.699L4.99996 801.699L6.99996 801.699L6.99996 799.699ZM100.28 707.739L101.891 706.554L100.969 705.3L99.5272 705.886L100.28 707.739ZM38.68 730.419C41.9875 730.419 44.3659 732.237 46.0338 735.718C47.7455 739.291 48.56 744.392 48.56 750.199L52.56 750.199C52.56 744.127 51.7244 738.338 49.6411 733.99C47.5141 729.551 43.9524 726.419 38.68 726.419L38.68 730.419ZM48.56 750.199C48.56 757.054 47.4858 763.841 45.3933 769.281L49.1267 770.717C51.4342 764.718 52.56 757.424 52.56 750.199L48.56 750.199ZM47.26 767.999L46.6 767.999L46.6 771.999L47.26 771.999L47.26 767.999ZM46.6 767.999C39.9529 767.999 35.6977 765.427 33.0166 761.501C30.2545 757.457 29.02 751.756 29.02 745.359L25.02 745.359C25.02 752.163 26.3154 758.781 29.7134 763.757C33.1922 768.851 38.727 771.999 46.6 771.999L46.6 767.999ZM29.02 745.359C29.02 740.654 30.0187 736.845 31.7138 734.279C33.3579 731.79 35.6718 730.419 38.68 730.419L38.68 726.419C34.2082 726.419 30.692 728.568 28.3762 732.074C26.1113 735.503 25.02 740.164 25.02 745.359L29.02 745.359ZM77.5425 717.495C79.1512 719.707 81.5457 724.242 83.5379 730.057C85.5227 735.851 87.06 742.777 87.06 749.759L91.06 749.759C91.06 742.221 89.4072 734.847 87.322 728.761C85.2442 722.696 82.6888 717.771 80.7774 715.143L77.5425 717.495ZM87.06 749.759C87.06 754.94 85.7094 759.562 83.3424 762.831C81.0121 766.051 77.6849 767.999 73.44 767.999L73.44 771.999C79.0951 771.999 83.5779 769.328 86.5825 765.177C89.5506 761.077 91.06 755.579 91.06 749.759L87.06 749.759ZM73.44 767.999L63.32 767.999L63.32 771.999L73.44 771.999L73.44 767.999ZM65.0972 770.916C68.7885 763.765 71.7 753.319 71.7 738.319L67.7 738.319C67.7 752.799 64.8914 762.594 61.5427 769.082L65.0972 770.916ZM71.7 738.319C71.7 730.213 69.5424 719.849 63.9692 711.446C58.3357 702.952 49.2171 696.499 35.6 696.499L35.6 700.499C47.7229 700.499 55.6543 706.146 60.6357 713.657C65.6776 721.259 67.7 730.805 67.7 738.319L71.7 738.319ZM35.6 696.499C25.2629 696.499 16.4362 700.468 10.2265 707.855C4.04549 715.207 0.599974 725.771 0.599973 738.759L4.59997 738.759C4.59997 726.447 7.86445 716.881 13.2884 710.429C18.6838 704.01 26.357 700.499 35.6 700.499L35.6 696.499ZM0.599973 738.759C0.599973 754.121 7.51597 766.121 19.1002 771.795L20.8597 768.203C10.884 763.317 4.59997 752.877 4.59997 738.759L0.599973 738.759ZM19.98 767.999L6.99997 767.999L6.99997 771.999L19.98 771.999L19.98 767.999ZM4.99997 769.999L4.99996 799.699L8.99996 799.699L8.99997 769.999L4.99997 769.999ZM6.99996 801.699L79.6 801.699L79.6 797.699L6.99996 797.699L6.99996 801.699ZM79.6 801.699C91.2125 801.699 100.342 796.258 106.486 786.97C112.576 777.762 115.7 764.848 115.7 749.759L111.7 749.759C111.7 764.37 108.664 776.426 103.149 784.763C97.688 793.02 89.7674 797.699 79.6 797.699L79.6 801.699ZM115.7 749.759C115.7 730.983 107.585 714.297 101.891 706.554L98.6687 708.924C103.975 716.141 111.7 732.015 111.7 749.759L115.7 749.759ZM99.5272 705.886L78.4072 714.466L79.9127 718.172L101.033 709.592L99.5272 705.886Z" fill="black"/>
</svg>
