<svg width="52" height="613" viewBox="0 0 52 613" fill="none" xmlns="http://www.w3.org/2000/svg">
<path opacity="0.6" d="M52 592.984L52 594.984L54 594.984L54 592.984L52 592.984ZM12.976 592.984L12.976 590.984L10.976 590.984L10.976 592.984L12.976 592.984ZM12.976 612.136L12.976 614.136L14.976 614.136L14.976 612.136L12.976 612.136ZM0.591997 612.136L-1.408 612.136L-1.408 614.136L0.591997 614.136L0.591997 612.136ZM0.591995 558.712L0.591995 556.712L-1.40801 556.712L-1.40801 558.712L0.591995 558.712ZM12.976 558.712L14.976 558.712L14.976 556.712L12.976 556.712L12.976 558.712ZM12.976 577.864L10.976 577.864L10.976 579.864L12.976 579.864L12.976 577.864ZM52 577.864L54 577.864L54 575.864L52 575.864L52 577.864ZM52 590.984L12.976 590.984L12.976 594.984L52 594.984L52 590.984ZM10.976 592.984L10.976 612.136L14.976 612.136L14.976 592.984L10.976 592.984ZM12.976 610.136L0.591997 610.136L0.591997 614.136L12.976 614.136L12.976 610.136ZM2.592 612.136L2.59199 558.712L-1.40801 558.712L-1.408 612.136L2.592 612.136ZM0.591995 560.712L12.976 560.712L12.976 556.712L0.591995 556.712L0.591995 560.712ZM10.976 558.712L10.976 577.864L14.976 577.864L14.976 558.712L10.976 558.712ZM12.976 579.864L52 579.864L52 575.864L12.976 575.864L12.976 579.864ZM50 577.864L50 592.984L54 592.984L54 577.864L50 577.864ZM52 552.907L52 554.907L54 554.907L54 552.907L52 552.907ZM14.2 552.907L12.2 552.907L12.2 554.907L14.2 554.907L14.2 552.907ZM14.2 538.651L14.2 536.651L12.2 536.651L12.2 538.651L14.2 538.651ZM52 538.651L54 538.651L54 536.651L52 536.651L52 538.651ZM9.51999 552.979L9.51999 554.979L11.52 554.979L11.52 552.979L9.51999 552.979ZM0.159995 552.979L-1.84 552.979L-1.84 554.979L0.159995 554.979L0.159995 552.979ZM0.159995 538.579L0.159995 536.579L-1.84001 536.579L-1.84001 538.579L0.159995 538.579ZM9.51999 538.579L11.52 538.579L11.52 536.579L9.51999 536.579L9.51999 538.579ZM52 550.907L14.2 550.907L14.2 554.907L52 554.907L52 550.907ZM16.2 552.907L16.2 538.651L12.2 538.651L12.2 552.907L16.2 552.907ZM14.2 540.651L52 540.651L52 536.651L14.2 536.651L14.2 540.651ZM50 538.651L50 552.907L54 552.907L54 538.651L50 538.651ZM9.51999 550.979L0.159995 550.979L0.159995 554.979L9.51999 554.979L9.51999 550.979ZM2.16 552.979L2.15999 538.579L-1.84001 538.579L-1.84 552.979L2.16 552.979ZM0.159995 540.579L9.51999 540.579L9.51999 536.579L0.159995 536.579L0.159995 540.579ZM7.51999 538.579L7.51999 552.979L11.52 552.979L11.52 538.579L7.51999 538.579ZM52 473.711L52 475.711L54 475.711L54 473.711L52 473.711ZM25.36 475.007L26.6184 476.562L26.659 476.529L26.6979 476.494L25.36 475.007ZM26.224 484.799L24.7688 486.172L24.789 486.193L24.8098 486.214L26.224 484.799ZM52 486.959L54 486.959L54 484.959L52 484.959L52 486.959ZM52 501.215L52 503.215L54 503.215L54 501.215L52 501.215ZM25.288 502.511L26.5833 504.035L26.6049 504.017L26.6259 503.998L25.288 502.511ZM24.496 509.712L22.6577 510.499L22.6648 510.516L22.6721 510.532L24.496 509.712ZM26.368 512.303L27.7822 510.889L27.7608 510.868L27.7387 510.847L26.368 512.303ZM52 514.463L54 514.463L54 512.463L52 512.463L52 514.463ZM52 528.719L52 530.719L54 530.719L54 528.719L52 528.719ZM14.2 528.719L12.2 528.719L12.2 530.719L14.2 530.719L14.2 528.719ZM14.2 514.751L14.2 512.751L12.2 512.751L12.2 514.751L14.2 514.751ZM19.456 514.751L19.456 516.751L24.7725 516.751L20.7742 513.247L19.456 514.751ZM14.776 493.367L16.5318 494.325L16.5318 494.325L14.776 493.367ZM19.816 488.543L20.7104 490.332L23.4332 488.971L21.1028 487.012L19.816 488.543ZM16.864 463.199L18.2508 464.641L18.2646 464.627L18.2782 464.614L16.864 463.199ZM52 459.456L54 459.456L54 457.456L52 457.456L52 459.456ZM52 471.711L29.896 471.711L29.896 475.711L52 475.711L52 471.711ZM29.896 471.711C27.6181 471.711 25.5147 472.178 24.0221 473.521L26.6979 476.494C27.1253 476.109 28.0459 475.711 29.896 475.711L29.896 471.711ZM24.1016 473.453C22.4336 474.803 21.848 476.886 21.848 479.111L25.848 479.111C25.848 477.497 26.2704 476.844 26.6184 476.562L24.1016 473.453ZM21.848 479.111C21.848 481.783 22.8705 484.158 24.7688 486.172L27.6792 483.427C26.4095 482.081 25.848 480.664 25.848 479.111L21.848 479.111ZM24.8098 486.214C26.5528 487.957 28.6237 488.959 30.976 488.959L30.976 484.96C29.8723 484.96 28.7752 484.522 27.6382 483.385L24.8098 486.214ZM30.976 488.959L52 488.959L52 484.959L30.976 484.96L30.976 488.959ZM50 486.959L50 501.215L54 501.215L54 486.959L50 486.959ZM52 499.215L29.896 499.215L29.896 503.215L52 503.215L52 499.215ZM29.896 499.215C27.5846 499.215 25.4493 499.676 23.9501 501.025L26.6259 503.998C27.0466 503.619 27.9833 503.215 29.896 503.215L29.896 499.215ZM23.9927 500.988C22.3939 502.347 21.848 504.419 21.848 506.615L25.848 506.615C25.848 504.972 26.2621 504.308 26.5833 504.035L23.9927 500.988ZM21.848 506.615C21.848 507.953 22.1232 509.252 22.6577 510.499L26.3343 508.924C26.0048 508.155 25.848 507.39 25.848 506.615L21.848 506.615ZM22.6721 510.532C23.2188 511.747 24.0024 512.824 24.9973 513.76L27.7387 510.847C27.1016 510.247 26.6372 509.596 26.3198 508.891L22.6721 510.532ZM24.9538 513.718C26.7436 515.508 28.9229 516.463 31.408 516.463L31.408 512.463C30.0531 512.463 28.8724 511.979 27.7822 510.889L24.9538 513.718ZM31.408 516.463L52 516.463L52 512.463L31.408 512.463L31.408 516.463ZM50 514.463L50 528.719L54 528.719L54 514.463L50 514.463ZM52 526.719L14.2 526.719L14.2 530.719L52 530.719L52 526.719ZM16.2 528.719L16.2 514.751L12.2 514.751L12.2 528.719L16.2 528.719ZM14.2 516.751L19.456 516.751L19.456 512.751L14.2 512.751L14.2 516.751ZM20.7742 513.247C16.9122 509.863 15.048 505.817 15.048 500.999L11.048 500.999C11.048 507.03 13.4558 512.152 18.1378 516.256L20.7742 513.247ZM15.048 500.999C15.048 498.28 15.5737 496.082 16.5318 494.325L13.0202 492.41C11.6743 494.877 11.048 497.767 11.048 500.999L15.048 500.999ZM16.5318 494.325C17.4829 492.582 18.8575 491.259 20.7104 490.332L18.9216 486.755C16.3585 488.036 14.3731 489.929 13.0202 492.41L16.5318 494.325ZM21.1028 487.012C17.0685 483.622 15.048 479.203 15.048 473.568L11.048 473.568C11.048 480.316 13.5395 485.881 18.5292 490.075L21.1028 487.012ZM15.048 473.568C15.048 469.495 16.1962 466.618 18.2508 464.641L15.4772 461.758C12.4438 464.677 11.048 468.712 11.048 473.568L15.048 473.568ZM18.2782 464.614C20.3023 462.59 23.2397 461.456 27.376 461.456L27.376 457.456C22.4883 457.456 18.4177 458.817 15.4498 461.785L18.2782 464.614ZM27.376 461.456L52 461.456L52 457.456L27.376 457.456L27.376 461.456ZM50 459.456L50 473.711L54 473.711L54 459.456L50 459.456ZM52 392.986L53.0174 394.708L54 394.127L54 392.986L52 392.986ZM34.576 403.282L33.5585 401.56L32.576 402.141L32.576 403.282L34.576 403.282ZM34.576 415.09L32.576 415.09L32.576 417.09L34.576 417.09L34.576 415.09ZM52 415.09L54 415.09L54 413.09L52 413.09L52 415.09ZM52 429.346L52 431.346L54 431.346L54 429.346L52 429.346ZM0.591989 429.346L-1.40801 429.346L-1.40801 431.346L0.591989 431.346L0.591989 429.346ZM26.224 382.33L27.3252 380.66L27.3171 380.655L27.309 380.65L26.224 382.33ZM31.696 389.17L29.8743 389.995L30.8146 392.071L32.7506 390.869L31.696 389.17ZM52 376.57L54 376.57L54 372.975L50.9454 374.871L52 376.57ZM22.192 396.874L23.8726 395.79L22.192 396.874ZM12.976 396.802L14.6224 397.937L14.6447 397.905L14.6656 397.872L12.976 396.802ZM11.536 415.09L9.53599 415.09L9.53599 417.09L11.536 417.09L11.536 415.09ZM23.632 415.09L23.632 417.09L25.632 417.09L25.632 415.09L23.632 415.09ZM50.9825 391.264L33.5585 401.56L35.5934 405.004L53.0174 394.708L50.9825 391.264ZM32.576 403.282L32.576 415.09L36.576 415.09L36.576 403.282L32.576 403.282ZM34.576 417.09L52 417.09L52 413.09L34.576 413.09L34.576 417.09ZM50 415.09L50 429.346L54 429.346L54 415.09L50 415.09ZM52 427.346L0.591989 427.346L0.591989 431.346L52 431.346L52 427.346ZM2.59199 429.346L2.59199 403.066L-1.40801 403.066L-1.40801 429.346L2.59199 429.346ZM2.59199 403.066C2.59199 395.599 3.98913 390.363 6.46341 387.033C8.85493 383.814 12.4631 382.098 17.656 382.098L17.656 378.098C11.4729 378.098 6.54904 380.21 3.25257 384.647C0.0388486 388.973 -1.40801 395.221 -1.40801 403.066L2.59199 403.066ZM17.656 382.098C20.7725 382.098 23.2287 382.776 25.1389 384.01L27.309 380.65C24.6113 378.908 21.3555 378.098 17.656 378.098L17.656 382.098ZM25.1228 384C26.9941 385.234 28.5995 387.182 29.8743 389.995L33.5177 388.345C32.0084 385.014 29.9659 382.402 27.3252 380.66L25.1228 384ZM32.7506 390.869L53.0546 378.269L50.9454 374.871L30.6414 387.471L32.7506 390.869ZM50 376.57L50 392.986L54 392.986L54 376.57L50 376.57ZM25.632 404.002C25.632 400.631 25.1528 397.774 23.8726 395.79L20.5114 397.958C21.1511 398.95 21.632 400.845 21.632 404.002L25.632 404.002ZM23.8726 395.79C22.46 393.6 20.1797 392.642 17.512 392.642L17.512 396.642C19.1643 396.642 20.004 397.172 20.5114 397.958L23.8726 395.79ZM17.512 392.642C14.9027 392.642 12.6555 393.57 11.2863 395.732L14.6656 397.872C15.1205 397.154 15.8972 396.642 17.512 396.642L17.512 392.642ZM11.3296 395.667C10.0058 397.586 9.53599 400.466 9.53599 403.858L13.536 403.858C13.536 400.626 14.0261 398.802 14.6224 397.937L11.3296 395.667ZM9.53599 403.858L9.53599 415.09L13.536 415.09L13.536 403.858L9.53599 403.858ZM11.536 417.09L23.632 417.09L23.632 413.09L11.536 413.09L11.536 417.09ZM25.632 415.09L25.632 404.002L21.632 404.002L21.632 415.09L25.632 415.09ZM47.752 333.681L46.2298 334.978L47.752 333.681ZM47.968 368.096L49.4776 369.408L49.4865 369.398L47.968 368.096ZM18.448 367.809L16.9258 369.106L18.448 367.809ZM18.304 333.392L19.8136 334.704L19.8225 334.694L18.304 333.392ZM26.008 344.048L24.6373 342.592L26.008 344.048ZM26.008 357.44L24.615 358.876L24.6261 358.886L24.6373 358.897L26.008 357.44ZM40.192 357.44L41.5627 358.897L40.192 357.44ZM40.192 344.12L38.799 345.556L38.8101 345.566L38.8213 345.577L40.192 344.12ZM32.992 329.345C38.7278 329.345 43.0598 331.258 46.2298 334.978L49.2742 332.383C45.2442 327.655 39.7362 325.345 32.992 325.345L32.992 329.345ZM46.2298 334.978C49.4336 338.737 51.152 344.008 51.152 351.032L55.152 351.032C55.152 343.369 53.2704 337.072 49.2742 332.383L46.2298 334.978ZM51.152 351.032C51.152 358.081 49.4938 363.243 46.4495 366.795L49.4865 369.398C53.3542 364.886 55.152 358.672 55.152 351.032L51.152 351.032ZM46.4584 366.785C43.4026 370.301 39.1019 372.144 33.28 372.144L33.28 376.144C40.0341 376.144 45.5254 373.956 49.4776 369.408L46.4584 366.785ZM33.28 372.144C27.4907 372.144 23.1371 370.227 19.9702 366.511L16.9258 369.106C20.9589 373.838 26.4933 376.144 33.28 376.144L33.28 372.144ZM19.9702 366.511C16.7664 362.752 15.048 357.481 15.048 350.457L11.048 350.457C11.048 358.12 12.9296 364.417 16.9258 369.106L19.9702 366.511ZM15.048 350.457C15.048 343.414 16.7271 338.256 19.8136 334.704L16.7944 332.081C12.8728 336.593 11.048 342.811 11.048 350.457L15.048 350.457ZM19.8225 334.694C22.8246 331.192 27.1158 329.345 32.992 329.345L32.992 325.345C26.1961 325.345 20.6953 327.529 16.7855 332.091L19.8225 334.694ZM33.064 339.745C29.674 339.745 26.7595 340.595 24.6373 342.592L27.3787 345.505C28.5205 344.43 30.31 343.745 33.064 343.745L33.064 339.745ZM24.6373 342.592C22.4905 344.613 21.56 347.443 21.56 350.745L25.56 350.745C25.56 348.19 26.2615 346.556 27.3787 345.505L24.6373 342.592ZM21.56 350.745C21.56 354.013 22.4979 356.821 24.615 358.876L27.4009 356.005C26.2541 354.892 25.56 353.236 25.56 350.745L21.56 350.745ZM24.6373 358.897C26.7647 360.899 29.7079 361.744 33.136 361.744L33.136 357.744C30.3241 357.744 28.5153 357.054 27.3787 355.984L24.6373 358.897ZM33.136 361.744C36.526 361.744 39.4405 360.894 41.5627 358.897L38.8213 355.984C37.6795 357.059 35.89 357.744 33.136 357.744L33.136 361.744ZM41.5627 358.897C43.7095 356.876 44.64 354.046 44.64 350.745L40.64 350.745C40.64 353.299 39.9385 354.933 38.8213 355.984L41.5627 358.897ZM44.64 350.745C44.64 347.479 43.7031 344.679 41.5627 342.664L38.8213 345.577C39.9449 346.634 40.64 348.25 40.64 350.745L44.64 350.745ZM41.5849 342.685C39.459 340.622 36.5072 339.745 33.064 339.745L33.064 343.745C35.8607 343.745 37.661 344.451 38.799 345.556L41.5849 342.685ZM52 290.172L52 292.172L54 292.172L54 290.172L52 290.172ZM46.744 290.172L46.744 288.172L41.7111 288.172L45.3712 291.627L46.744 290.172ZM49.336 315.66L50.7634 317.061L50.7698 317.055L50.7761 317.048L49.336 315.66ZM14.2 319.548L12.2 319.548L12.2 321.548L14.2 321.548L14.2 319.548ZM14.2 305.292L14.2 303.292L12.2 303.292L12.2 305.292L14.2 305.292ZM40.84 303.78L42.2542 305.194L40.84 303.78ZM39.832 292.908L38.3268 294.225L39.832 292.908ZM37.456 291.108L38.3122 289.301L38.2945 289.292L38.2767 289.284L37.456 291.108ZM14.2 290.46L12.2 290.46L12.2 292.46L14.2 292.46L14.2 290.46ZM14.2 276.204L14.2 274.204L12.2 274.204L12.2 276.204L14.2 276.204ZM52 276.204L54 276.204L54 274.204L52 274.204L52 276.204ZM52 288.172L46.744 288.172L46.744 292.172L52 292.172L52 288.172ZM45.3712 291.627C49.2596 295.297 51.152 299.625 51.152 304.716L55.152 304.716C55.152 298.479 52.7723 293.112 48.1168 288.718L45.3712 291.627ZM51.152 304.716C51.152 309.001 49.9907 312.099 47.8958 314.272L50.7761 317.048C53.7692 313.942 55.152 309.744 55.152 304.716L51.152 304.716ZM47.9086 314.259C45.8275 316.38 42.8652 317.548 38.752 317.548L38.752 321.548C43.6628 321.548 47.7564 320.125 50.7634 317.061L47.9086 314.259ZM38.752 317.548L14.2 317.548L14.2 321.548L38.752 321.548L38.752 317.548ZM16.2 319.548L16.2 305.292L12.2 305.292L12.2 319.548L16.2 319.548ZM14.2 307.292L36.088 307.292L36.088 303.292L14.2 303.292L14.2 307.292ZM36.088 307.292C38.5094 307.292 40.7162 306.732 42.2542 305.194L39.4258 302.366C38.9478 302.844 37.9865 303.292 36.088 303.292L36.088 307.292ZM42.2542 305.194C43.7774 303.671 44.352 301.529 44.352 299.172L40.352 299.172C40.352 300.944 39.9186 301.873 39.4258 302.366L42.2542 305.194ZM44.352 299.172C44.352 296.368 43.2915 293.825 41.3371 291.591L38.3268 294.225C39.7324 295.832 40.352 297.464 40.352 299.172L44.352 299.172ZM41.3371 291.591C40.4868 290.619 39.4747 289.851 38.3122 289.301L36.5998 292.916C37.2613 293.229 37.8332 293.661 38.3268 294.225L41.3371 291.591ZM38.2767 289.284C37.0838 288.748 35.8453 288.46 34.576 288.46L34.576 292.46C35.2267 292.46 35.9081 292.605 36.6353 292.932L38.2767 289.284ZM34.576 288.46L14.2 288.46L14.2 292.46L34.576 292.46L34.576 288.46ZM16.2 290.46L16.2 276.204L12.2 276.204L12.2 290.46L16.2 290.46ZM14.2 278.204L52 278.204L52 274.204L14.2 274.204L14.2 278.204ZM50 276.204L50 290.172L54 290.172L54 276.204L50 276.204ZM50.92 235.355L52.8198 234.73L52.2778 233.082L50.5699 233.386L50.92 235.355ZM49.336 258.827L50.7932 260.197L50.8 260.19L50.8067 260.182L49.336 258.827ZM24.568 262.427L24.568 260.427L22.568 260.427L22.568 262.427L24.568 262.427ZM24.568 269.627L24.568 271.627L26.568 271.627L26.568 269.627L24.568 269.627ZM14.2 269.627L12.2 269.627L12.2 271.627L14.2 271.627L14.2 269.627ZM14.2 262.427L16.2 262.427L16.2 260.427L14.2 260.427L14.2 262.427ZM4.26398 262.427L2.26398 262.427L2.26398 264.427L4.26398 264.427L4.26398 262.427ZM4.26398 248.171L4.26398 246.171L2.26398 246.171L2.26398 248.171L4.26398 248.171ZM14.2 248.171L14.2 250.171L16.2 250.171L16.2 248.171L14.2 248.171ZM14.2 236.939L14.2 234.939L12.2 234.939L12.2 236.939L14.2 236.939ZM24.568 236.939L26.568 236.939L26.568 234.939L24.568 234.939L24.568 236.939ZM24.568 248.171L22.568 248.171L22.568 250.171L24.568 250.171L24.568 248.171ZM41.056 246.947L42.4702 248.361L42.5118 248.32L42.5508 248.276L41.056 246.947ZM41.2 237.083L40.8499 235.114L38.6434 235.506L39.2832 237.654L41.2 237.083ZM49.0201 235.98C50.1482 239.409 50.72 243.109 50.72 247.091L54.72 247.091C54.72 242.721 54.0917 238.597 52.8198 234.73L49.0201 235.98ZM50.72 247.091C50.72 252.257 49.6243 255.563 47.8653 257.472L50.8067 260.182C53.5596 257.195 54.72 252.677 54.72 247.091L50.72 247.091ZM47.8787 257.457C46.1646 259.281 43.1525 260.427 38.32 260.427L38.32 264.427C43.6635 264.427 47.9954 263.173 50.7932 260.197L47.8787 257.457ZM38.32 260.427L24.568 260.427L24.568 264.427L38.32 264.427L38.32 260.427ZM22.568 262.427L22.568 269.627L26.568 269.627L26.568 262.427L22.568 262.427ZM24.568 267.627L14.2 267.627L14.2 271.627L24.568 271.627L24.568 267.627ZM16.2 269.627L16.2 262.427L12.2 262.427L12.2 269.627L16.2 269.627ZM14.2 260.427L4.26398 260.427L4.26398 264.427L14.2 264.427L14.2 260.427ZM6.26398 262.427L6.26398 248.171L2.26398 248.171L2.26398 262.427L6.26398 262.427ZM4.26398 250.171L14.2 250.171L14.2 246.171L4.26398 246.171L4.26398 250.171ZM16.2 248.171L16.2 236.939L12.2 236.939L12.2 248.171L16.2 248.171ZM14.2 238.939L24.568 238.939L24.568 234.939L14.2 234.939L14.2 238.939ZM22.568 236.939L22.568 248.171L26.568 248.171L26.568 236.939L22.568 236.939ZM24.568 250.171L37.312 250.171L37.312 246.171L24.568 246.171L24.568 250.171ZM37.312 250.171C39.2807 250.171 41.1372 249.694 42.4702 248.361L39.6418 245.533C39.3428 245.832 38.7033 246.171 37.312 246.171L37.312 250.171ZM42.5508 248.276C43.7939 246.877 44.208 244.919 44.208 242.843L40.208 242.843C40.208 244.511 39.8541 245.289 39.5612 245.618L42.5508 248.276ZM44.208 242.843C44.208 240.996 43.8199 238.872 43.1168 236.512L39.2832 237.654C39.9241 239.805 40.208 241.522 40.208 242.843L44.208 242.843ZM41.5501 239.052L51.27 237.324L50.5699 233.386L40.8499 235.114L41.5501 239.052ZM52 228.907L52 230.907L54 230.907L54 228.907L52 228.907ZM0.59198 228.907L-1.40802 228.907L-1.40802 230.907L0.59198 230.907L0.59198 228.907ZM0.59198 214.651L0.59198 212.651L-1.40802 212.651L-1.40802 214.651L0.59198 214.651ZM52 214.651L54 214.651L54 212.651L52 212.651L52 214.651ZM52 226.907L0.59198 226.907L0.59198 230.907L52 230.907L52 226.907ZM2.59198 228.907L2.59198 214.651L-1.40802 214.651L-1.40802 228.907L2.59198 228.907ZM0.59198 216.651L52 216.651L52 212.651L0.59198 212.651L0.59198 216.651ZM50 214.651L50 228.907L54 228.907L54 214.651L50 214.651ZM36.448 193.056L34.448 193.056L34.448 195.27L36.651 195.045L36.448 193.056ZM41.848 190.319L43.419 191.557L43.4396 191.531L43.4593 191.504L41.848 190.319ZM39.832 175.271L37.832 175.271L37.832 176.63L39.0953 177.131L39.832 175.271ZM39.832 162.095L40.2647 160.143L37.832 159.604L37.832 162.095L39.832 162.095ZM48.04 200.616L46.528 199.306L48.04 200.616ZM22.984 203.784L24.0051 202.064L23.9934 202.057L22.984 203.784ZM15.712 195.863L17.5008 194.969L17.4959 194.959L17.4908 194.949L15.712 195.863ZM18.232 167.423L19.7186 168.761L19.7278 168.751L18.232 167.423ZM36.448 161.663L38.448 161.663L38.448 159.663L36.448 159.663L36.448 161.663ZM28.888 174.911L30.888 174.911L30.888 172.797L28.777 172.915L28.888 174.911ZM24.208 189.888L22.5805 191.05L22.5885 191.061L22.5967 191.072L24.208 189.888ZM28.888 192.767L28.5913 194.745L30.888 195.09L30.888 192.767L28.888 192.767ZM36.651 195.045C39.4413 194.76 41.7778 193.64 43.419 191.557L40.277 189.082C39.4222 190.167 38.1586 190.871 36.245 191.066L36.651 195.045ZM43.4593 191.504C44.9947 189.416 45.648 186.716 45.648 183.624L41.648 183.624C41.648 186.194 41.1013 187.959 40.2367 189.135L43.4593 191.504ZM45.648 183.624C45.648 178.85 44.3147 174.896 40.5687 173.412L39.0953 177.131C40.4372 177.663 41.648 179.277 41.648 183.624L45.648 183.624ZM41.832 175.271L41.832 162.095L37.832 162.095L37.832 175.271L41.832 175.271ZM39.3992 164.048C43.346 164.923 46.1965 166.933 48.1135 170.083C50.0726 173.302 51.152 177.874 51.152 183.983L55.152 183.983C55.152 177.469 54.0114 172.081 51.5305 168.004C49.0074 163.858 45.198 161.236 40.2647 160.143L39.3992 164.048ZM51.152 183.983C51.152 190.834 49.5207 195.85 46.528 199.306L49.552 201.925C53.3753 197.509 55.152 191.437 55.152 183.983L51.152 183.983ZM46.528 199.306C43.5754 202.716 39.3539 204.519 33.568 204.519L33.568 208.519C40.262 208.519 45.6885 206.387 49.552 201.925L46.528 199.306ZM33.568 204.519C29.9009 204.519 26.7335 203.684 24.0051 202.064L21.9629 205.503C25.3785 207.531 29.2671 208.519 33.568 208.519L33.568 204.519ZM23.9934 202.057C21.2319 200.443 19.0678 198.103 17.5008 194.969L13.9231 196.758C15.8121 200.536 18.4961 203.476 21.9746 205.51L23.9934 202.057ZM17.4908 194.949C15.8877 191.83 15.048 188.076 15.048 183.624L11.048 183.624C11.048 188.579 11.9843 192.985 13.9331 196.778L17.4908 194.949ZM15.048 183.624C15.048 176.984 16.6934 172.123 19.7186 168.761L16.7454 166.086C12.8586 170.404 11.048 176.343 11.048 183.624L15.048 183.624ZM19.7278 168.751C22.6727 165.433 26.9205 163.663 32.776 163.663L32.776 159.663C26.0555 159.663 20.6073 161.734 16.7361 166.096L19.7278 168.751ZM32.776 163.663L36.448 163.663L36.448 159.663L32.776 159.663L32.776 163.663ZM34.448 161.663L34.448 193.056L38.448 193.056L38.448 161.663L34.448 161.663ZM28.777 172.915C26.1346 173.061 23.9069 174.086 22.4094 176.149C20.9784 178.12 20.408 180.78 20.408 183.84L24.408 183.84C24.408 181.187 24.9175 179.503 25.6466 178.498C26.3091 177.585 27.3213 177.002 28.9989 176.908L28.777 172.915ZM20.408 183.84C20.408 186.548 21.1054 188.985 22.5805 191.05L25.8354 188.725C24.9106 187.43 24.408 185.835 24.408 183.84L20.408 183.84ZM22.5967 191.072C24.0967 193.112 26.1201 194.375 28.5913 194.745L29.1847 190.79C27.8159 190.584 26.7193 189.927 25.8193 188.703L22.5967 191.072ZM30.888 192.767L30.888 174.911L26.888 174.911L26.888 192.767L30.888 192.767ZM52 122.572L52 124.572L54 124.572L54 122.572L52 122.572ZM46.888 122.572L46.888 120.572L41.3344 120.572L45.6128 124.113L46.888 122.572ZM50.776 146.548L52.5068 147.55L52.5106 147.544L52.5143 147.537L50.776 146.548ZM44.008 153.028L44.9253 154.805L44.9425 154.796L44.9596 154.787L44.008 153.028ZM23.056 153.028L22.1506 154.811L22.1616 154.817L22.1726 154.822L23.056 153.028ZM15.712 146.26L13.9946 147.285L13.9982 147.291L14.002 147.297L15.712 146.26ZM18.376 122.86L19.6725 124.383L23.8104 120.86L18.376 120.86L18.376 122.86ZM0.591976 122.86L-1.40802 122.86L-1.40802 124.86L0.591976 124.86L0.591976 122.86ZM0.591975 108.604L0.591975 106.604L-1.40802 106.604L-1.40802 108.604L0.591975 108.604ZM52 108.604L54 108.604L54 106.604L52 106.604L52 108.604ZM26.008 138.628L24.615 140.063L24.6261 140.074L24.6372 140.084L26.008 138.628ZM40.192 138.628L41.5627 140.084L40.192 138.628ZM40.048 125.236L41.4999 123.861L41.4916 123.852L41.4831 123.843L40.048 125.236ZM52 120.572L46.888 120.572L46.888 124.572L52 124.572L52 120.572ZM45.6128 124.113C49.2574 127.129 51.152 131.371 51.152 137.116L55.152 137.116C55.152 130.381 52.8706 124.927 48.1631 121.031L45.6128 124.113ZM51.152 137.116C51.152 140.307 50.4343 143.104 49.0377 145.559L52.5143 147.537C54.2856 144.424 55.152 140.933 55.152 137.116L51.152 137.116ZM49.0451 145.546C47.656 147.945 45.6777 149.851 43.0563 151.269L44.9596 154.787C48.1942 153.037 50.7279 150.623 52.5068 147.55L49.0451 145.546ZM43.0907 151.251C40.4441 152.617 37.3127 153.332 33.64 153.332L33.64 157.332C37.8393 157.332 41.6199 156.511 44.9253 154.805L43.0907 151.251ZM33.64 153.332C29.9697 153.332 26.7503 152.617 23.9393 151.234L22.1726 154.822C25.6017 156.51 29.4383 157.332 33.64 157.332L33.64 153.332ZM23.9614 151.245C21.1663 149.826 19.0002 147.825 17.422 145.223L14.002 147.297C15.9758 150.551 18.7057 153.062 22.1506 154.811L23.9614 151.245ZM17.4294 145.235C15.8646 142.613 15.048 139.498 15.048 135.82L11.048 135.82C11.048 140.11 12.0074 143.955 13.9946 147.285L17.4294 145.235ZM15.048 135.82C15.048 130.659 16.6579 126.949 19.6725 124.383L17.0795 121.337C12.9901 124.819 11.048 129.749 11.048 135.82L15.048 135.82ZM18.376 120.86L0.591976 120.86L0.591976 124.86L18.376 124.86L18.376 120.86ZM2.59198 122.86L2.59198 108.604L-1.40802 108.604L-1.40802 122.86L2.59198 122.86ZM0.591975 110.604L52 110.604L52 106.604L0.591975 106.604L0.591975 110.604ZM50 108.604L50 122.572L54 122.572L54 108.604L50 108.604ZM32.488 120.788C29.3639 120.788 26.6627 121.753 24.5938 123.822L27.4222 126.65C28.6173 125.455 30.2361 124.788 32.488 124.788L32.488 120.788ZM24.5938 123.822C22.5114 125.904 21.56 128.662 21.56 131.86L25.56 131.86C25.56 129.49 26.2405 127.832 27.4222 126.65L24.5938 123.822ZM21.56 131.86C21.56 135.165 22.4916 138.002 24.615 140.063L27.4009 137.193C26.2603 136.086 25.56 134.411 25.56 131.86L21.56 131.86ZM24.6372 140.084C26.7698 142.091 29.7416 142.932 33.208 142.932L33.208 138.932C30.3383 138.932 28.5102 138.237 27.3787 137.172L24.6372 140.084ZM33.208 142.932C36.56 142.932 39.4459 142.077 41.5627 140.084L38.8212 137.172C37.6741 138.251 35.9039 138.932 33.208 138.932L33.208 142.932ZM41.5627 140.084C43.6964 138.076 44.64 135.305 44.64 132.076L40.64 132.076C40.64 134.511 39.9515 136.108 38.8212 137.172L41.5627 140.084ZM44.64 132.076C44.64 128.878 43.6126 126.091 41.4999 123.861L38.5961 126.611C39.9394 128.029 40.64 129.802 40.64 132.076L44.64 132.076ZM41.4831 123.843C39.4917 121.791 36.9429 120.788 34 120.788L34 124.788C35.9531 124.788 37.4363 125.417 38.6128 126.629L41.4831 123.843ZM34 120.788L32.488 120.788L32.488 124.788L34 124.788L34 120.788ZM44.8 68.0162L44.8 66.0162L39.5271 66.0162L43.4736 69.5132L44.8 68.0162ZM48.256 91.6323L46.499 90.6767L48.256 91.6323ZM41.848 98.1122L42.837 99.8506L41.848 98.1122ZM22.336 98.1122L23.2998 96.3598L22.336 98.1122ZM15.568 91.3442L17.315 90.3705L17.3096 90.3611L15.568 91.3442ZM14.416 73.2723L16.2585 74.0502L16.2659 74.0327L16.2729 74.015L14.416 73.2723ZM18.52 67.7283L19.7886 69.2744L24.1105 65.7283L18.52 65.7283L18.52 67.7283ZM14.2 67.7283L12.2 67.7283L12.2 69.7283L14.2 69.7283L14.2 67.7283ZM14.2 53.7603L14.2 51.7603L12.2 51.7603L12.2 53.7603L14.2 53.7603ZM61.792 59.3762L60.294 60.7014L60.3025 60.711L61.792 59.3762ZM63.448 92.4243L61.737 91.3886L61.733 91.3953L63.448 92.4243ZM53.44 98.6882L51.44 98.6882L51.44 100.96L53.6932 100.672L53.44 98.6882ZM53.44 84.9362L52.8905 83.0132L51.44 83.4277L51.44 84.9362L53.44 84.9362ZM56.392 82.4882L58.1808 83.3827L58.1875 83.3693L58.194 83.3559L56.392 82.4882ZM55.168 70.1763L53.7538 71.5905L53.7657 71.6024L53.7779 71.6142L55.168 70.1763ZM28.312 68.4482L29.0548 70.3052L29.0715 70.2985L29.0881 70.2915L28.312 68.4482ZM25.576 70.3923L27.0132 71.7831L27.0206 71.7754L27.0279 71.7678L25.576 70.3923ZM25.576 83.6403L27.0559 82.2949L25.576 83.6403ZM37.96 70.3923L36.4414 71.6938L36.4499 71.7036L37.96 70.3923ZM43.4736 69.5132C46.7472 72.4138 48.488 76.5682 48.488 82.2723L52.488 82.2723C52.488 75.6883 50.4368 70.3387 46.1263 66.5193L43.4736 69.5132ZM48.488 82.2723C48.488 85.4849 47.8084 88.269 46.499 90.6767L50.0129 92.5878C51.6795 89.5234 52.488 86.0676 52.488 82.2723L48.488 82.2723ZM46.499 90.6767C45.1943 93.0757 43.3287 94.9687 40.8589 96.3739L42.837 99.8506C45.9352 98.0878 48.3416 95.6608 50.0129 92.5878L46.499 90.6767ZM40.8589 96.3739C38.42 97.7615 35.5312 98.4882 32.128 98.4882L32.128 102.488C36.1168 102.488 39.7079 101.631 42.837 99.8506L40.8589 96.3739ZM32.128 98.4882C28.7792 98.4882 25.8531 97.7641 23.2998 96.3598L21.3721 99.8647C24.5789 101.628 28.1808 102.488 32.128 102.488L32.128 98.4882ZM23.2998 96.3598C20.7556 94.9605 18.768 92.9775 17.3149 90.3705L13.821 92.318C15.632 95.567 18.1564 98.096 21.3721 99.8647L23.2998 96.3598ZM17.3096 90.3611C15.8232 87.728 15.048 84.6206 15.048 80.9763L11.048 80.9763C11.048 85.2039 11.9527 89.0085 13.8263 92.3275L17.3096 90.3611ZM15.048 80.9763C15.048 78.1982 15.4743 75.9073 16.2585 74.0502L12.5735 72.4943C11.5336 74.9571 11.048 77.8022 11.048 80.9763L15.048 80.9763ZM16.2729 74.015C17.0065 72.1812 18.1662 70.6056 19.7886 69.2744L17.2513 66.1821C15.1297 67.9229 13.5535 70.0433 12.559 72.5295L16.2729 74.015ZM18.52 65.7283L14.2 65.7283L14.2 69.7283L18.52 69.7283L18.52 65.7283ZM16.2 67.7283L16.2 53.7603L12.2 53.7603L12.2 67.7283L16.2 67.7283ZM14.2 55.7603L46.312 55.7603L46.312 51.7603L14.2 51.7603L14.2 55.7603ZM46.312 55.7603C52.9853 55.7603 57.4951 57.5375 60.294 60.7014L63.29 58.0511C59.4648 53.727 53.6547 51.7603 46.312 51.7603L46.312 55.7603ZM60.3025 60.711C63.1414 63.879 64.76 69.0542 64.76 76.6562L68.76 76.6562C68.76 68.6103 67.0665 62.2654 63.2814 58.0415L60.3025 60.711ZM64.76 76.6562C64.76 83.3563 63.6735 88.1891 61.737 91.3887L65.159 93.4598C67.6384 89.3634 68.76 83.6842 68.76 76.6562L64.76 76.6562ZM61.733 91.3953C59.9173 94.4214 57.1492 96.1985 53.1867 96.7043L53.6932 100.672C58.7548 100.026 62.6587 97.627 65.163 93.4532L61.733 91.3953ZM55.44 98.6882L55.44 84.9362L51.44 84.9362L51.44 98.6882L55.44 98.6882ZM53.9894 86.8593C55.8714 86.3216 57.3056 85.1331 58.1808 83.3827L54.6031 81.5938C54.2303 82.3394 53.6966 82.7829 52.8905 83.0132L53.9894 86.8593ZM58.194 83.3559C59.0129 81.655 59.328 79.3757 59.328 76.7283L55.328 76.7283C55.328 79.1688 55.019 80.7295 54.59 81.6206L58.194 83.3559ZM59.328 76.7283C59.328 73.4728 58.5431 70.6572 56.558 68.7383L53.7779 71.6142C54.6728 72.4792 55.328 74.0317 55.328 76.7283L59.328 76.7283ZM56.5822 68.762C54.6187 66.7985 51.7712 66.0162 48.472 66.0162L48.472 70.0162C51.2207 70.0162 52.8373 70.6739 53.7538 71.5905L56.5822 68.762ZM48.472 66.0162L44.8 66.0162L44.8 70.0162L48.472 70.0162L48.472 66.0162ZM31.48 65.8723C30.0687 65.8723 28.7399 66.098 27.5359 66.605L29.0881 70.2915C29.7081 70.0305 30.4912 69.8723 31.48 69.8723L31.48 65.8723ZM27.5692 66.5913C26.2895 67.1032 25.145 67.9391 24.1241 69.0168L27.0279 71.7678C27.735 71.0214 28.4145 70.5613 29.0548 70.3052L27.5692 66.5913ZM24.1388 69.0014C22.2165 70.9877 21.416 73.7505 21.416 76.9443L25.416 76.9443C25.416 74.3779 26.0554 72.7728 27.0132 71.7831L24.1388 69.0014ZM21.416 76.9443C21.416 80.1473 22.2202 82.9221 24.0961 84.9856L27.0559 82.2949C26.0518 81.1904 25.416 79.5012 25.416 76.9443L21.416 76.9443ZM24.0961 84.9856C26.0145 87.0958 28.7073 88.0162 31.84 88.0162L31.84 84.0162C29.5006 84.0162 28.0175 83.3527 27.0559 82.2949L24.0961 84.9856ZM31.84 88.0162C34.922 88.0162 37.5842 87.1232 39.5405 85.1038L36.6675 82.3207C35.6477 83.3733 34.1339 84.0162 31.84 84.0162L31.84 88.0162ZM39.5405 85.1038C41.4949 83.0863 42.336 80.3381 42.336 77.1603L38.336 77.1603C38.336 79.6464 37.689 81.2662 36.6675 82.3207L39.5405 85.1038ZM42.336 77.1603C42.336 74.0486 41.4062 71.3104 39.47 69.0809L36.4499 71.7036C37.6818 73.1221 38.336 74.8959 38.336 77.1603L42.336 77.1603ZM39.4785 69.0906C37.6409 66.9468 35.2043 65.8723 32.344 65.8723L32.344 69.8723C34.0917 69.8723 35.399 70.4777 36.4415 71.6938L39.4785 69.0906ZM32.344 65.8723L31.48 65.8723L31.48 69.8723L32.344 69.8723L32.344 65.8723ZM36.448 32.1805L34.448 32.1805L34.448 34.395L36.651 34.1702L36.448 32.1805ZM41.848 29.4445L43.419 30.6822L43.4396 30.6561L43.4593 30.6293L41.848 29.4445ZM39.832 14.3965L37.832 14.3965L37.832 15.7553L39.0952 16.2559L39.832 14.3965ZM39.832 1.22052L40.2647 -0.732119L37.832 -1.2713L37.832 1.22052L39.832 1.22052ZM48.04 39.7405L46.528 38.4313L48.04 39.7405ZM22.984 42.9085L24.0051 41.1887L23.9934 41.1819L22.984 42.9085ZM15.712 34.9885L17.5008 34.0941L17.4959 34.0842L17.4908 34.0743L15.712 34.9885ZM18.232 6.54852L19.7186 7.88647L19.7278 7.87604L18.232 6.54852ZM36.448 0.788511L38.448 0.788511L38.448 -1.21149L36.448 -1.21149L36.448 0.788511ZM28.888 14.0365L30.888 14.0365L30.888 11.9223L28.777 12.0395L28.888 14.0365ZM24.208 29.0125L22.5805 30.175L22.5885 30.1862L22.5967 30.1973L24.208 29.0125ZM28.888 31.8925L28.5913 33.8704L30.888 34.2148L30.888 31.8925L28.888 31.8925ZM36.651 34.1702C39.4413 33.8854 41.7778 32.7653 43.419 30.6822L40.277 28.2067C39.4222 29.2917 38.1586 29.9955 36.2449 30.1909L36.651 34.1702ZM43.4593 30.6293C44.9947 28.5411 45.648 25.8415 45.648 22.7485L41.648 22.7485C41.648 25.3195 41.1013 27.0839 40.2367 28.2597L43.4593 30.6293ZM45.648 22.7485C45.648 17.975 44.3147 14.0214 40.5687 12.5371L39.0952 16.2559C40.4372 16.7876 41.648 18.402 41.648 22.7485L45.648 22.7485ZM41.832 14.3965L41.832 1.22052L37.832 1.22052L37.832 14.3965L41.832 14.3965ZM39.3992 3.17309C43.3459 4.04779 46.1965 6.05822 48.1135 9.20819C50.0726 12.4275 51.152 16.9993 51.152 23.1085L55.152 23.1085C55.152 16.5937 54.0114 11.2055 51.5305 7.12878C49.0074 2.98278 45.198 0.361203 40.2647 -0.732119L39.3992 3.17309ZM51.152 23.1085C51.152 29.9595 49.5207 34.975 46.528 38.4313L49.552 41.0497C53.3753 36.634 55.152 30.5615 55.152 23.1085L51.152 23.1085ZM46.528 38.4313C43.5754 41.8414 39.3539 43.6445 33.568 43.6445L33.568 47.6445C40.262 47.6445 45.6885 45.5117 49.552 41.0497L46.528 38.4313ZM33.568 43.6445C29.9009 43.6445 26.7335 42.8088 24.005 41.1888L21.9629 44.6282C25.3785 46.6562 29.267 47.6445 33.568 47.6445L33.568 43.6445ZM23.9934 41.1819C21.2319 39.5675 19.0678 37.2281 17.5008 34.0941L13.9231 35.8829C15.8121 39.6609 18.4961 42.6015 21.9746 44.6351L23.9934 41.1819ZM17.4908 34.0743C15.8877 30.9547 15.048 27.2007 15.048 22.7485L11.048 22.7485C11.048 27.7042 11.9843 32.1103 13.9331 35.9026L17.4908 34.0743ZM15.048 22.7485C15.048 16.1088 16.6934 11.2477 19.7186 7.88641L16.7454 5.21057C12.8586 9.52923 11.048 15.4683 11.048 22.7485L15.048 22.7485ZM19.7278 7.87604C22.6727 4.55792 26.9205 2.78851 32.776 2.78851L32.776 -1.21149C26.0555 -1.21149 20.6073 0.859068 16.7361 5.22095L19.7278 7.87604ZM32.776 2.78851L36.448 2.78851L36.448 -1.21149L32.776 -1.21149L32.776 2.78851ZM34.448 0.788511L34.448 32.1805L38.448 32.1805L38.448 0.788511L34.448 0.788511ZM28.777 12.0395C26.1346 12.1864 23.9068 13.2105 22.4094 15.2737C20.9784 17.2452 20.408 19.9045 20.408 22.9645L24.408 22.9645C24.408 20.3124 24.9175 18.6277 25.6466 17.6233C26.3091 16.7104 27.3213 16.1266 28.9989 16.0334L28.777 12.0395ZM20.408 22.9645C20.408 25.673 21.1054 28.1098 22.5805 30.175L25.8354 27.85C24.9106 26.5552 24.408 24.96 24.408 22.9645L20.408 22.9645ZM22.5967 30.1973C24.0967 32.2372 26.1201 33.4997 28.5913 33.8704L29.1847 29.9146C27.8159 29.7093 26.7193 29.0518 25.8193 27.8277L22.5967 30.1973ZM30.888 31.8925L30.888 14.0365L26.888 14.0365L26.888 31.8925L30.888 31.8925Z" fill="#DADADA"/>
</svg>
