<svg width="210" height="815" viewBox="0 0 210 815" fill="none" xmlns="http://www.w3.org/2000/svg">
<path opacity="0.44" d="M103.12 24.36L103.922 26.1923L106.193 25.1987L104.741 23.189L103.12 24.36ZM85.96 0.599993L87.5814 -0.570988L86.6812 -1.81734L85.2453 -1.26795L85.96 0.599993ZM142.06 74.96L140.211 74.1973L140.208 74.2051L140.205 74.2128L142.06 74.96ZM157.68 89.48L156.761 87.7036L154.626 88.8081L156.1 90.7068L157.68 89.48ZM175.28 112.14L173.7 113.367L174.62 114.55L176.014 114.001L175.28 112.14ZM119.4 49.44L121.249 50.2027L121.249 50.2015L119.4 49.44ZM104.741 23.189L87.5814 -0.570988L84.3386 1.77097L101.499 25.531L104.741 23.189ZM85.2453 -1.26795C59.3051 8.657 40.4 30.6565 40.4 61.32L44.4 61.32C44.4 32.5835 62.0149 11.903 86.6747 2.46794L85.2453 -1.26795ZM40.4 61.32C40.4 79.0789 44.473 93.4375 53.2486 103.372C62.0639 113.351 75.3334 118.54 93 118.54L93 114.54C76.1266 114.54 64.0961 109.609 56.2464 100.723C48.357 91.7925 44.4 78.5411 44.4 61.32L40.4 61.32ZM93 118.54C107.658 118.54 118.822 111.766 127.067 103.066C135.283 94.396 140.678 83.745 143.915 75.7072L140.205 74.2128C137.062 82.015 131.897 92.154 124.163 100.314C116.458 108.444 106.282 114.54 93 114.54L93 118.54ZM143.909 75.7227C145.737 71.2908 147.289 66.9595 148.765 63.0918C150.257 59.1809 151.679 55.724 153.293 52.836C154.905 49.9524 156.648 47.752 158.723 46.2679C160.762 44.8098 163.236 43.96 166.48 43.96L166.48 39.96C162.464 39.96 159.163 41.0352 156.396 43.0146C153.665 44.968 151.572 47.7176 149.802 50.884C148.034 54.046 146.526 57.7391 145.028 61.6657C143.513 65.6355 142.013 69.8292 140.211 74.1973L143.909 75.7227ZM166.48 43.96C170.498 43.96 173.784 45.3672 176.082 47.8972C178.395 50.444 179.88 54.323 179.88 59.56L183.88 59.56C183.88 53.577 182.175 48.656 179.043 45.2078C175.896 41.7428 171.482 39.96 166.48 39.96L166.48 43.96ZM179.88 59.56C179.88 73.6768 169.531 81.0987 156.761 87.7036L158.599 91.2564C171.349 84.6613 183.88 76.2433 183.88 59.56L179.88 59.56ZM156.1 90.7068L173.7 113.367L176.86 110.913L159.26 88.2532L156.1 90.7068ZM176.014 114.001C192.141 107.64 211.6 91.8663 211.6 61.54L207.6 61.54C207.6 89.7337 189.659 104.32 174.546 110.279L176.014 114.001ZM211.6 61.54C211.6 31.2598 192.506 8.28 165.6 8.28L165.6 12.28C189.734 12.28 207.6 32.8602 207.6 61.54L211.6 61.54ZM165.6 8.28C136.23 8.28 123.682 33.7892 117.551 48.6785L121.249 50.2015C127.438 35.1708 139.09 12.28 165.6 12.28L165.6 8.28ZM117.551 48.6773C113.866 57.6111 110.837 65.6744 106.583 71.5927C102.45 77.3439 97.2877 80.88 89.26 80.88L89.26 84.88C98.8323 84.88 105.11 80.4961 109.832 73.9273C114.433 67.5256 117.674 58.8689 121.249 50.2027L117.551 48.6773ZM89.26 80.88C84.2278 80.88 80.1115 79.1807 77.2441 76.1221C74.3667 73.0529 72.56 68.4135 72.56 62.2L68.56 62.2C68.56 69.1864 70.6033 74.887 74.3259 78.8579C78.0585 82.8392 83.2922 84.88 89.26 84.88L89.26 80.88ZM72.56 62.2C72.56 46.4698 83.0523 35.3226 103.922 26.1923L102.318 22.5277C80.9477 31.8773 68.56 44.0501 68.56 62.2L72.56 62.2ZM185.4 139.621L187.4 139.621L187.4 137.621L185.4 137.621L185.4 139.621ZM150.2 139.621L148.2 139.621L148.2 141.621L150.2 141.621L150.2 139.621ZM150.2 123.121L152.2 123.121L152.2 121.121L150.2 121.121L150.2 123.121ZM124.9 123.121L124.9 121.121L122.9 121.121L122.9 123.121L124.9 123.121ZM124.9 139.621L124.9 141.621L126.9 141.621L126.9 139.621L124.9 139.621ZM49 139.621L49 137.621L47 137.621L47 139.621L49 139.621ZM49 169.321L47 169.321L47 171.321L49 171.321L49 169.321ZM124.9 169.321L126.9 169.321L126.9 167.321L124.9 167.321L124.9 169.321ZM124.9 185.821L122.9 185.821L122.9 187.821L124.9 187.821L124.9 185.821ZM150.2 185.821L150.2 187.821L152.2 187.821L152.2 185.821L150.2 185.821ZM150.2 169.321L150.2 167.321L148.2 167.321L148.2 169.321L150.2 169.321ZM185.4 169.321L185.4 171.321L187.4 171.321L187.4 169.321L185.4 169.321ZM185.4 137.621L150.2 137.621L150.2 141.621L185.4 141.621L185.4 137.621ZM152.2 139.621L152.2 123.121L148.2 123.121L148.2 139.621L152.2 139.621ZM150.2 121.121L124.9 121.121L124.9 125.121L150.2 125.121L150.2 121.121ZM122.9 123.121L122.9 139.621L126.9 139.621L126.9 123.121L122.9 123.121ZM124.9 137.621L49 137.621L49 141.621L124.9 141.621L124.9 137.621ZM47 139.621L47 169.321L51 169.321L51 139.621L47 139.621ZM49 171.321L124.9 171.321L124.9 167.321L49 167.321L49 171.321ZM122.9 169.321L122.9 185.821L126.9 185.821L126.9 169.321L122.9 169.321ZM124.9 187.821L150.2 187.821L150.2 183.821L124.9 183.821L124.9 187.821ZM152.2 185.821L152.2 169.321L148.2 169.321L148.2 185.821L152.2 185.821ZM150.2 171.321L185.4 171.321L185.4 167.321L150.2 167.321L150.2 171.321ZM187.4 169.321L187.4 139.621L183.4 139.621L183.4 169.321L187.4 169.321ZM99.6 222.175C108.658 222.175 115.828 224.908 120.719 229.547C125.599 234.175 128.4 240.881 128.4 249.215L132.4 249.215C132.4 239.95 129.261 232.136 123.471 226.644C117.692 221.163 109.462 218.175 99.6 218.175L99.6 222.175ZM128.4 249.215C128.4 257.55 125.599 264.256 120.719 268.884C115.828 273.523 108.658 276.255 99.6 276.255L99.6 280.255C109.462 280.255 117.692 277.268 123.471 271.787C129.261 266.295 132.4 258.481 132.4 249.215L128.4 249.215ZM99.6 276.255C90.5423 276.255 83.3721 273.523 78.4813 268.884C73.601 264.256 70.8 257.55 70.8 249.215L66.8 249.215C66.8 258.481 69.9389 266.295 75.7287 271.787C81.5079 277.268 89.7376 280.255 99.6 280.255L99.6 276.255ZM70.8 249.215C70.8 240.881 73.601 234.175 78.4813 229.547C83.3721 224.908 90.5423 222.175 99.6 222.175L99.6 218.175C89.7376 218.175 81.5079 221.163 75.7287 226.644C69.9389 232.136 66.8 239.95 66.8 249.215L70.8 249.215ZM99.6 188.255C63.2955 188.255 41.5 217.544 41.5 249.215L45.5 249.215C45.5 219.286 65.9445 192.255 99.6 192.255L99.6 188.255ZM41.5 249.215C41.5 280.886 63.2955 310.175 99.6 310.175L99.6 306.175C65.9445 306.175 45.5 279.144 45.5 249.215L41.5 249.215ZM99.6 310.175C135.905 310.175 157.7 280.886 157.7 249.215L153.7 249.215C153.7 279.144 133.255 306.175 99.6 306.175L99.6 310.175ZM157.7 249.215C157.7 217.544 135.905 188.255 99.6 188.255L99.6 192.255C133.255 192.255 153.7 219.286 153.7 249.215L157.7 249.215ZM119.84 391.593L118.223 390.417L116.973 392.135L118.763 393.279L119.84 391.593ZM143.6 406.773L142.523 408.459L143.752 409.244L144.875 408.314L143.6 406.773ZM137.44 356.613L137.44 354.613L130.834 354.613L136.331 358.277L137.44 356.613ZM150.2 356.613L150.2 358.613L152.2 358.613L152.2 356.613L150.2 356.613ZM150.2 325.813L152.2 325.813L152.2 323.813L150.2 323.813L150.2 325.813ZM49 325.813L49 323.813L47 323.813L47 325.813L49 325.813ZM49 356.613L47 356.613L47 358.613L49 358.613L49 356.613ZM118.763 393.279L142.523 408.459L144.677 405.088L120.917 389.908L118.763 393.279ZM144.875 408.314C151.804 402.58 155.5 394.482 155.5 382.353L151.5 382.353C151.5 393.545 148.156 400.407 142.325 405.233L144.875 408.314ZM155.5 382.353C155.5 372.03 148.821 361.797 138.549 354.949L136.331 358.277C145.859 364.629 151.5 373.757 151.5 382.353L155.5 382.353ZM137.44 358.613L150.2 358.613L150.2 354.613L137.44 354.613L137.44 358.613ZM152.2 356.613L152.2 325.813L148.2 325.813L148.2 356.613L152.2 356.613ZM150.2 323.813L49 323.813L49 327.813L150.2 327.813L150.2 323.813ZM47 325.813L47 356.613L51 356.613L51 325.813L47 325.813ZM49 358.613L106.2 358.613L106.2 354.613L49 354.613L49 358.613ZM106.2 358.613C113.262 358.613 117.253 360.071 119.548 362.476C121.86 364.9 122.9 368.746 122.9 374.653L126.9 374.653C126.9 368.461 125.85 363.287 122.442 359.715C119.017 356.126 113.658 354.613 106.2 354.613L106.2 358.613ZM122.9 374.653C122.9 380.065 121.434 386.001 118.223 390.417L121.457 392.77C125.286 387.505 126.9 380.681 126.9 374.653L122.9 374.653ZM49 486.989L49 484.989L47 484.989L47 486.989L49 486.989ZM49 516.689L47 516.689L47 518.689L49 518.689L49 516.689ZM49 550.789L49 548.789L47 548.789L47 550.789L49 550.789ZM49 580.489L47 580.489L47 582.489L49 582.489L49 580.489ZM134.14 512.729L133.325 510.903L129.743 512.502L133.141 514.461L134.14 512.729ZM135.24 452.889L135.24 450.889L128.634 450.889L134.131 454.553L135.24 452.889ZM150.2 452.889L150.2 454.889L152.2 454.889L152.2 452.889L150.2 452.889ZM150.2 420.989L152.2 420.989L152.2 418.989L150.2 418.989L150.2 420.989ZM49 420.989L49 418.989L47 418.989L47 420.989L49 420.989ZM49 452.889L47 452.889L47 454.889L49 454.889L49 452.889ZM110.6 454.889C115.279 454.889 119.2 456.259 121.935 458.829C124.649 461.379 126.42 465.32 126.42 470.929L130.42 470.929C130.42 464.438 128.341 459.359 124.675 455.914C121.03 452.489 116.041 450.889 110.6 450.889L110.6 454.889ZM126.42 470.929C126.42 476.12 125.126 479.484 122.787 481.602C120.405 483.759 116.544 484.989 110.6 484.989L110.6 488.989C116.976 488.989 122.025 487.689 125.473 484.566C128.964 481.404 130.42 476.738 130.42 470.929L126.42 470.929ZM110.6 484.989L49 484.989L49 488.989L110.6 488.989L110.6 484.989ZM47 486.989L47 516.689L51 516.689L51 486.989L47 486.989ZM49 518.689L110.6 518.689L110.6 514.689L49 514.689L49 518.689ZM110.6 518.689C115.279 518.689 119.2 520.059 121.935 522.629C124.649 525.179 126.42 529.12 126.42 534.729L130.42 534.729C130.42 528.238 128.341 523.159 124.675 519.714C121.03 516.289 116.041 514.689 110.6 514.689L110.6 518.689ZM126.42 534.729C126.42 539.92 125.126 543.284 122.787 545.402C120.405 547.559 116.544 548.789 110.6 548.789L110.6 552.789C116.976 552.789 122.025 551.489 125.473 548.366C128.964 545.204 130.42 540.538 130.42 534.729L126.42 534.729ZM110.6 548.789L49 548.789L49 552.789L110.6 552.789L110.6 548.789ZM47 550.789L47 580.489L51 580.489L51 550.789L47 550.789ZM49 582.489L115 582.489L115 578.489L49 578.489L49 582.489ZM115 582.489C128.429 582.489 138.413 578.93 145.035 572.367C151.659 565.803 154.62 556.531 154.62 545.729L150.62 545.729C150.62 555.827 147.861 563.935 142.22 569.526C136.577 575.118 127.751 578.489 115 578.489L115 582.489ZM154.62 545.729C154.62 530.515 147.216 517.964 135.139 510.997L133.141 514.461C143.944 520.694 150.62 531.903 150.62 545.729L154.62 545.729ZM134.955 514.555C148.116 508.68 154.62 496.878 154.62 481.929L150.62 481.929C150.62 495.58 144.804 505.778 133.325 510.903L134.955 514.555ZM154.62 481.929C154.62 469.185 146.621 458.072 136.349 451.225L134.131 454.553C143.659 460.906 150.62 470.913 150.62 481.929L154.62 481.929ZM135.24 454.889L150.2 454.889L150.2 450.889L135.24 450.889L135.24 454.889ZM152.2 452.889L152.2 420.989L148.2 420.989L148.2 452.889L152.2 452.889ZM150.2 418.989L49 418.989L49 422.989L150.2 422.989L150.2 418.989ZM47 420.989L47 452.889L51 452.889L51 420.989L47 420.989ZM49 454.889L110.6 454.889L110.6 450.889L49 450.889L49 454.889ZM122.7 644.889L121.558 646.531L124.7 648.716L124.7 644.889L122.7 644.889ZM49 593.629L50.142 591.987L47 589.802L47 593.629L49 593.629ZM49 688.229L47 688.229L47 690.229L49 690.229L49 688.229ZM76.5 688.229L76.5 690.229L78.5 690.229L78.5 688.229L76.5 688.229ZM76.5 645.769L77.642 644.127L74.5 641.942L74.5 645.769L76.5 645.769ZM150.2 697.029L149.058 698.671L152.2 700.856L152.2 697.029L150.2 697.029ZM150.2 602.429L152.2 602.429L152.2 600.429L150.2 600.429L150.2 602.429ZM122.7 602.429L122.7 600.429L120.7 600.429L120.7 602.429L122.7 602.429ZM123.842 643.247L50.142 591.987L47.858 595.271L121.558 646.531L123.842 643.247ZM47 593.629L47 688.229L51 688.229L51 593.629L47 593.629ZM49 690.229L76.5 690.229L76.5 686.229L49 686.229L49 690.229ZM78.5 688.229L78.5 645.769L74.5 645.769L74.5 688.229L78.5 688.229ZM75.358 647.411L149.058 698.671L151.342 695.387L77.642 644.127L75.358 647.411ZM152.2 697.029L152.2 602.429L148.2 602.429L148.2 697.029L152.2 697.029ZM150.2 600.429L122.7 600.429L122.7 604.429L150.2 604.429L150.2 600.429ZM120.7 602.429L120.7 644.889L124.7 644.889L124.7 602.429L120.7 602.429ZM150.2 693.669L152.2 693.669L152.2 690.476L149.327 691.869L150.2 693.669ZM55.82 739.429L55.0295 741.266L55.8696 741.627L56.6925 741.228L55.82 739.429ZM0.599975 715.669L1.39044 713.832L-1.40003 712.631L-1.40003 715.669L0.599975 715.669ZM0.599973 748.669L-1.40003 748.669L-1.40003 749.972L-0.207308 750.499L0.599973 748.669ZM150.2 814.669L149.393 816.499L152.2 817.737L152.2 814.669L150.2 814.669ZM150.2 781.669L152.2 781.669L152.2 780.315L150.943 779.812L150.2 781.669ZM84.2 755.269L83.4572 753.412L78.8148 755.269L83.4572 757.126L84.2 755.269ZM150.2 728.869L150.943 730.726L152.2 730.223L152.2 728.869L150.2 728.869ZM149.327 691.869L54.9474 737.629L56.6925 741.228L151.073 695.468L149.327 691.869ZM56.6105 737.592L1.39044 713.832L-0.190522 717.506L55.0295 741.266L56.6105 737.592ZM-1.40003 715.669L-1.40003 748.669L2.59996 748.669L2.59996 715.669L-1.40003 715.669ZM-0.207308 750.499L149.393 816.499L151.007 812.839L1.40725 746.839L-0.207308 750.499ZM152.2 814.669L152.2 781.669L148.2 781.669L148.2 814.669L152.2 814.669ZM150.943 779.812L84.9427 753.412L83.4572 757.126L149.457 783.526L150.943 779.812ZM84.9427 757.126L150.943 730.726L149.457 727.012L83.4572 753.412L84.9427 757.126ZM152.2 728.869L152.2 693.669L148.2 693.669L148.2 728.869L152.2 728.869Z" fill="black"/>
</svg>
