<svg width="210" height="837" viewBox="0 0 210 837" fill="none" xmlns="http://www.w3.org/2000/svg">
<path opacity="0.44" d="M103.12 24.3599L103.922 26.1923L106.193 25.1986L104.741 23.189L103.12 24.3599ZM85.96 0.599932L87.5814 -0.571049L86.6812 -1.8174L85.2453 -1.26801L85.96 0.599932ZM142.06 74.9599L140.211 74.1973L140.208 74.205L140.205 74.2127L142.06 74.9599ZM157.68 89.4799L156.761 87.7035L154.626 88.808L156.1 90.7068L157.68 89.4799ZM175.28 112.14L173.7 113.367L174.62 114.55L176.014 114L175.28 112.14ZM119.4 49.4399L121.249 50.2026L121.249 50.2014L119.4 49.4399ZM104.741 23.189L87.5814 -0.571049L84.3386 1.77091L101.499 25.5309L104.741 23.189ZM85.2453 -1.26801C59.3051 8.65694 40.4 30.6564 40.4 61.3199L44.4 61.3199C44.4 32.5834 62.0149 11.9029 86.6747 2.46788L85.2453 -1.26801ZM40.4 61.3199C40.4 79.0788 44.473 93.4374 53.2486 103.372C62.0639 113.351 75.3334 118.54 93 118.54L93 114.54C76.1266 114.54 64.0961 109.609 56.2464 100.723C48.357 91.7924 44.4 78.541 44.4 61.3199L40.4 61.3199ZM93 118.54C107.658 118.54 118.822 111.766 127.067 103.066C135.283 94.3959 140.678 83.745 143.915 75.7072L140.205 74.2127C137.062 82.0149 131.897 92.154 124.163 100.314C116.458 108.444 106.282 114.54 93 114.54L93 118.54ZM143.909 75.7226C145.737 71.2907 147.289 66.9595 148.765 63.0917C150.257 59.1809 151.679 55.7239 153.293 52.8359C154.905 49.9524 156.648 47.752 158.723 46.2679C160.762 44.8097 163.236 43.9599 166.48 43.9599L166.48 39.9599C162.464 39.9599 159.163 41.0351 156.396 43.0145C153.665 44.9679 151.572 47.7175 149.802 50.8839C148.034 54.0459 146.526 57.739 145.028 61.6657C143.513 65.6354 142.013 69.8292 140.211 74.1973L143.909 75.7226ZM166.48 43.9599C170.498 43.9599 173.784 45.3671 176.082 47.8971C178.395 50.4439 179.88 54.323 179.88 59.5599L183.88 59.5599C183.88 53.5769 182.175 48.6559 179.043 45.2078C175.896 41.7427 171.482 39.9599 166.48 39.9599L166.48 43.9599ZM179.88 59.5599C179.88 73.6767 169.531 81.0986 156.761 87.7035L158.599 91.2564C171.349 84.6612 183.88 76.2432 183.88 59.5599L179.88 59.5599ZM156.1 90.7068L173.7 113.367L176.86 110.913L159.26 88.2531L156.1 90.7068ZM176.014 114C192.141 107.64 211.6 91.8663 211.6 61.5399L207.6 61.5399C207.6 89.7336 189.659 104.32 174.546 110.279L176.014 114ZM211.6 61.5399C211.6 31.2597 192.506 8.27994 165.6 8.27994L165.6 12.2799C189.734 12.2799 207.6 32.8601 207.6 61.5399L211.6 61.5399ZM165.6 8.27994C136.23 8.27993 123.682 33.7892 117.551 48.6784L121.249 50.2014C127.438 35.1707 139.09 12.2799 165.6 12.2799L165.6 8.27994ZM117.551 48.6773C113.866 57.6111 110.837 65.6744 106.583 71.5927C102.45 77.3438 97.2877 80.8799 89.26 80.8799L89.26 84.8799C98.8323 84.8799 105.11 80.4961 109.832 73.9272C114.433 67.5255 117.674 58.8688 121.249 50.2026L117.551 48.6773ZM89.26 80.8799C84.2278 80.8799 80.1115 79.1807 77.2441 76.122C74.3667 73.0529 72.56 68.4135 72.56 62.1999L68.56 62.1999C68.56 69.1864 70.6033 74.887 74.3259 78.8578C78.0585 82.8392 83.2922 84.8799 89.26 84.8799L89.26 80.8799ZM72.56 62.1999C72.56 46.4698 83.0523 35.3226 103.922 26.1923L102.318 22.5276C80.9477 31.8773 68.56 44.0501 68.56 62.1999L72.56 62.1999ZM132.16 164.921L132.16 162.921L124.525 162.921L131.179 166.664L132.16 164.921ZM150.2 164.921L150.2 166.921L152.2 166.921L152.2 164.921L150.2 164.921ZM150.2 135.221L152.2 135.221L152.2 133.221L150.2 133.221L150.2 135.221ZM0.6 135.221L0.6 133.221L-1.4 133.221L-1.4 135.221L0.6 135.221ZM0.599999 164.921L-1.4 164.921L-1.4 166.921L0.599999 166.921L0.599999 164.921ZM67.04 164.921L68.0205 166.664L74.675 162.921L67.04 162.921L67.04 164.921ZM99.6 221.001C91.1822 221.001 84.5769 218.052 80.0696 213.293C75.5483 208.519 73 201.776 73 193.961L69 193.961C69 202.646 71.8417 210.423 77.1654 216.044C82.5031 221.68 90.1977 225.001 99.6 225.001L99.6 221.001ZM73 193.961C73 186.55 74.8034 179.812 78.9074 174.957C82.9611 170.162 89.4993 166.921 99.6 166.921L99.6 162.921C88.5807 162.921 80.8189 166.5 75.8526 172.375C70.9365 178.19 69 185.973 69 193.961L73 193.961ZM99.6 166.921C109.701 166.921 116.239 170.162 120.293 174.957C124.397 179.812 126.2 186.55 126.2 193.961L130.2 193.961C130.2 185.973 128.263 178.19 123.347 172.375C118.381 166.5 110.619 162.921 99.6 162.921L99.6 166.921ZM126.2 193.961C126.2 201.889 124.138 208.614 119.917 213.335C115.729 218.018 109.174 221.001 99.6 221.001L99.6 225.001C110.046 225.001 117.791 221.714 122.898 216.002C127.972 210.328 130.2 202.533 130.2 193.961L126.2 193.961ZM99.6 254.921C118.633 254.921 132.935 248.827 142.478 238.997C152.003 229.184 156.6 215.837 156.6 201.661L152.6 201.661C152.6 214.985 148.287 227.269 139.607 236.211C130.945 245.135 117.747 250.921 99.6 250.921L99.6 254.921ZM156.6 201.661C156.6 185.473 147.791 171.419 133.141 163.178L131.179 166.664C144.689 174.263 152.6 187.049 152.6 201.661L156.6 201.661ZM132.16 166.921L150.2 166.921L150.2 162.921L132.16 162.921L132.16 166.921ZM152.2 164.921L152.2 135.221L148.2 135.221L148.2 164.921L152.2 164.921ZM150.2 133.221L0.6 133.221L0.6 137.221L150.2 137.221L150.2 133.221ZM-1.4 135.221L-1.4 164.921L2.59998 164.921L2.59998 135.221L-1.4 135.221ZM0.599999 166.921L67.04 166.921L67.04 162.921L0.599999 162.921L0.599999 166.921ZM66.0595 163.178C51.4086 171.419 42.6 185.473 42.6 201.661L46.6 201.661C46.6 187.049 54.5114 174.263 68.0205 166.664L66.0595 163.178ZM42.6 201.661C42.6 215.837 47.1972 229.184 56.7224 238.997C66.2645 248.827 80.5669 254.921 99.6 254.921L99.6 250.921C81.4531 250.921 68.2554 245.135 59.5926 236.211C50.9128 227.269 46.6 214.985 46.6 201.661L42.6 201.661ZM150.2 270.378L152.2 270.378L152.2 268.378L150.2 268.378L150.2 270.378ZM49 270.378L49 268.378L47 268.378L47 270.378L49 270.378ZM49 300.518L47 300.518L47 302.518L49 302.518L49 300.518ZM150.2 300.518L150.2 302.518L152.2 302.518L152.2 300.518L150.2 300.518ZM150.2 268.378L49 268.378L49 272.378L150.2 272.378L150.2 268.378ZM47 270.378L47 300.518L51 300.518L51 270.378L47 270.378ZM49 302.518L150.2 302.518L150.2 298.518L49 298.518L49 302.518ZM152.2 300.518L152.2 270.378L148.2 270.378L148.2 300.518L152.2 300.518ZM190.24 265.298C179.564 265.298 171.08 274.449 171.08 285.558L175.08 285.558C175.08 276.428 181.996 269.298 190.24 269.298L190.24 265.298ZM171.08 285.558C171.08 296.668 179.564 305.818 190.24 305.818L190.24 301.818C181.996 301.818 175.08 294.689 175.08 285.558L171.08 285.558ZM190.24 305.818C200.916 305.818 209.4 296.668 209.4 285.558L205.4 285.558C205.4 294.689 198.484 301.818 190.24 301.818L190.24 305.818ZM209.4 285.558C209.4 274.449 200.916 265.298 190.24 265.298L190.24 269.298C198.484 269.298 205.4 276.428 205.4 285.558L209.4 285.558ZM113.68 414.447L112.651 412.732L106.459 416.447L113.68 416.447L113.68 414.447ZM147.12 414.447L147.12 416.447L148.258 416.447L148.84 415.469L147.12 414.447ZM52.08 414.447L50.4559 415.615L51.0545 416.447L52.08 416.447L52.08 414.447ZM85.74 414.447L85.74 416.447L92.9606 416.447L86.769 412.732L85.74 414.447ZM99.6 352.207C108.017 352.207 114.719 355.155 119.33 360.169C123.958 365.201 126.64 372.493 126.64 381.447L130.64 381.447C130.64 371.702 127.712 363.374 122.275 357.461C116.82 351.53 109.003 348.207 99.6 348.207L99.6 352.207ZM126.64 381.447C126.64 388.161 124.904 394.967 122.237 400.645C119.549 406.368 116.029 410.706 112.651 412.732L114.709 416.162C119.031 413.569 122.991 408.447 125.858 402.345C128.746 396.198 130.64 388.814 130.64 381.447L126.64 381.447ZM113.68 416.447L147.12 416.447L147.12 412.447L113.68 412.447L113.68 416.447ZM148.84 415.469C153.219 408.093 157.7 393.434 157.7 379.247L153.7 379.247C153.7 392.78 149.381 406.722 145.4 413.426L148.84 415.469ZM157.7 379.247C157.7 360.664 151.725 345.132 141.394 334.229C131.058 323.32 116.492 317.187 99.6 317.187L99.6 321.187C115.488 321.187 128.972 326.935 138.491 336.981C148.015 347.033 153.7 361.53 153.7 379.247L157.7 379.247ZM99.6 317.187C82.7082 317.187 68.1423 323.32 57.8057 334.229C47.4754 345.132 41.5 360.664 41.5 379.247L45.5 379.247C45.5 361.53 51.1845 347.033 60.7093 336.981C70.2277 326.935 83.7117 321.187 99.6 321.187L99.6 317.187ZM41.5 379.247C41.5 386.337 42.3991 393.537 43.9497 399.88C45.492 406.189 47.7153 411.802 50.4559 415.615L53.704 413.28C51.3847 410.053 49.3179 404.995 47.8353 398.93C46.3609 392.898 45.5 386.018 45.5 379.247L41.5 379.247ZM52.08 416.447L85.74 416.447L85.74 412.447L52.08 412.447L52.08 416.447ZM86.769 412.732C79.7959 408.549 72.56 397.183 72.56 381.447L68.56 381.447C68.56 398.271 76.284 411.106 84.711 416.162L86.769 412.732ZM72.56 381.447C72.56 372.493 75.2421 365.201 79.8696 360.169C84.4805 355.155 91.1828 352.207 99.6 352.207L99.6 348.207C90.1972 348.207 82.3795 351.53 76.9253 357.461C71.4878 363.374 68.56 371.702 68.56 381.447L72.56 381.447ZM91.9 461.46L93.9 461.46L93.9 459.105L91.5756 459.487L91.9 461.46ZM91.9 541.54L89.9 541.54L89.9 543.341L91.6906 543.529L91.9 541.54ZM76.94 540.66L76.0745 542.463L78.3362 543.549L78.8905 541.102L76.94 540.66ZM83.32 512.5L85.2705 512.942L85.6171 511.413L84.2144 510.712L83.32 512.5ZM113.68 510.3L111.68 510.3L111.68 512.708L114.047 512.267L113.68 510.3ZM113.68 462.12L114.197 460.189L111.68 459.514L111.68 462.12L113.68 462.12ZM89.9 461.46L89.9 541.54L93.9 541.54L93.9 461.46L89.9 461.46ZM91.6906 543.529C95.9826 543.981 99.8124 543.98 101.58 543.98L101.58 539.98C99.8276 539.98 96.1774 539.98 92.1094 539.551L91.6906 543.529ZM101.58 543.98C117.984 543.98 132.044 538.486 142.011 528.606C151.98 518.723 157.7 504.602 157.7 487.64L153.7 487.64C153.7 503.679 148.31 516.728 139.194 525.765C130.076 534.805 117.076 539.98 101.58 539.98L101.58 543.98ZM157.7 487.64C157.7 452.385 131.233 428.88 99.6 428.88L99.6 432.88C129.127 432.88 153.7 454.696 153.7 487.64L157.7 487.64ZM99.6 428.88C83.8635 428.88 69.5891 434.15 59.2383 444.214C48.8744 454.291 42.6 469.023 42.6 487.64L46.6 487.64C46.6 469.958 52.5356 456.31 62.0267 447.082C71.5308 437.841 84.7565 432.88 99.6 432.88L99.6 428.88ZM42.6 487.64C42.6 503.297 46.6627 514.99 52.9543 523.809C59.231 532.608 67.6255 538.408 76.0745 542.463L77.8054 538.857C69.7544 534.993 61.9789 529.573 56.2107 521.486C50.4572 513.421 46.6 502.563 46.6 487.64L42.6 487.64ZM78.8905 541.102L85.2705 512.942L81.3694 512.058L74.9894 540.218L78.8905 541.102ZM84.2144 510.712C75.9561 506.582 69.7 499.282 69.7 487.64L65.7 487.64C65.7 501.079 73.0839 509.618 82.4255 514.289L84.2144 510.712ZM69.7 487.64C69.7 481.579 71.5939 476.181 75.2787 471.994C78.9652 467.806 84.568 464.692 92.2244 463.434L91.5756 459.487C83.172 460.868 76.6748 464.354 72.2762 469.351C67.876 474.35 65.7 480.722 65.7 487.64L69.7 487.64ZM115.68 510.3L115.68 462.12L111.68 462.12L111.68 510.3L115.68 510.3ZM113.163 464.052C124.582 467.111 131.7 477.518 131.7 487.64L135.7 487.64C135.7 475.763 127.418 463.73 114.197 460.189L113.163 464.052ZM131.7 487.64C131.7 493.523 130.058 498.076 127.064 501.435C124.055 504.811 119.501 507.181 113.313 508.334L114.047 512.267C120.839 511 126.295 508.31 130.051 504.096C133.822 499.865 135.7 494.298 135.7 487.64L131.7 487.64ZM107.3 710.22L107.3 708.22L105.3 708.22L105.3 710.22L107.3 710.22ZM107.3 754L106.824 755.943L109.3 756.549L109.3 754L107.3 754ZM156.58 751.8L155.558 750.081L153.41 751.358L155.126 753.174L156.58 751.8ZM175.5 771.82L174.046 773.194L175.166 774.379L176.552 773.521L175.5 771.82ZM134.8 785.02L134.8 787.02L136.8 787.02L136.8 785.02L134.8 785.02ZM134.8 710.22L136.8 710.22L136.8 708.22L134.8 708.22L134.8 710.22ZM105.3 710.22L105.3 754L109.3 754L109.3 710.22L105.3 710.22ZM107.776 752.058C97.3065 749.494 88.3809 744.62 82.0654 736.869C75.7585 729.129 71.9 718.33 71.9 703.62L67.9 703.62C67.9 719.051 71.9614 730.801 78.9645 739.396C85.9591 747.98 95.7334 753.227 106.824 755.943L107.776 752.058ZM71.9 703.62C71.9 674.338 93.4707 650.62 126 650.62L126 646.62C91.2093 646.62 67.9 672.182 67.9 703.62L71.9 703.62ZM126 650.62C158.529 650.62 180.1 674.338 180.1 703.62L184.1 703.62C184.1 672.182 160.791 646.62 126 646.62L126 650.62ZM180.1 703.62C180.1 722.188 171.125 740.825 155.558 750.081L157.602 753.519C174.595 743.416 184.1 723.332 184.1 703.62L180.1 703.62ZM155.126 753.174L174.046 773.194L176.954 770.447L158.034 750.427L155.126 753.174ZM176.552 773.521C198.558 759.909 211.6 736.998 211.6 703.62L207.6 703.62C207.6 735.802 195.122 757.331 174.448 770.119L176.552 773.521ZM211.6 703.62C211.6 678.527 203.137 656.563 188.139 640.859C173.131 625.145 151.695 615.82 126 615.82L126 619.82C150.685 619.82 171.049 628.756 185.246 643.622C199.453 658.497 207.6 679.433 207.6 703.62L211.6 703.62ZM126 615.82C100.305 615.82 78.8687 625.145 63.8611 640.859C48.863 656.563 40.4 678.527 40.4 703.62L44.4 703.62C44.4 679.433 52.5469 658.497 66.7538 643.622C80.9512 628.756 101.315 619.82 126 619.82L126 615.82ZM40.4 703.62C40.4 729.843 49.4361 750.755 65.0547 765.098C80.6515 779.421 102.622 787.02 128.2 787.02L128.2 783.02C103.398 783.02 82.4684 775.659 67.7603 762.152C53.0738 748.665 44.4 728.877 44.4 703.62L40.4 703.62ZM128.2 787.02L134.8 787.02L134.8 783.02L128.2 783.02L128.2 787.02ZM136.8 785.02L136.8 710.22L132.8 710.22L132.8 785.02L136.8 785.02ZM134.8 708.22L107.3 708.22L107.3 712.22L134.8 712.22L134.8 708.22ZM150.2 803.406L152.2 803.406L152.2 801.406L150.2 801.406L150.2 803.406ZM49 803.406L49 801.406L47 801.406L47 803.406L49 803.406ZM49 833.546L47 833.546L47 835.546L49 835.546L49 833.546ZM150.2 833.546L150.2 835.546L152.2 835.546L152.2 833.546L150.2 833.546ZM150.2 801.406L49 801.406L49 805.406L150.2 805.406L150.2 801.406ZM47 803.406L47 833.546L51 833.546L51 803.406L47 803.406ZM49 835.546L150.2 835.546L150.2 831.546L49 831.546L49 835.546ZM152.2 833.546L152.2 803.406L148.2 803.406L148.2 833.546L152.2 833.546ZM190.24 798.326C179.564 798.326 171.08 807.476 171.08 818.586L175.08 818.586C175.08 809.455 181.996 802.326 190.24 802.326L190.24 798.326ZM171.08 818.586C171.08 829.695 179.564 838.846 190.24 838.846L190.24 834.846C181.996 834.846 175.08 827.716 175.08 818.586L171.08 818.586ZM190.24 838.846C200.916 838.846 209.4 829.695 209.4 818.586L205.4 818.586C205.4 827.716 198.484 834.846 190.24 834.846L190.24 838.846ZM209.4 818.586C209.4 807.476 200.916 798.326 190.24 798.326L190.24 802.326C198.484 802.326 205.4 809.455 205.4 818.586L209.4 818.586Z" fill="black"/>
</svg>
